<mxfile host="app.diagrams.net" modified="2023-09-04T18:50:15.794Z" agent="Mozilla/5.0 (Windows NT 6.1; Win64; x64; rv:109.0) Gecko/20100101 Firefox/115.0" etag="HfWRFHHdN1-66MtRsX9v" version="21.6.9" type="device" pages="2">
  <diagram name="BP" id="2a216829-ef6e-dabb-86c1-c78162f3ba2b">
    <mxGraphModel dx="1050" dy="498" grid="1" gridSize="10" guides="1" tooltips="1" connect="1" arrows="1" fold="1" page="1" pageScale="1" pageWidth="1169" pageHeight="827" background="none" math="0" shadow="0">
      <root>
        <mxCell id="0" />
        <mxCell id="1" parent="0" />
        <mxCell id="Jbeqt2HLPeFKV9M9eCiw-30" value="Экономика" style="swimlane;html=1;startSize=31;horizontal=0;whiteSpace=wrap;fontSize=9;" parent="1" vertex="1">
          <mxGeometry x="10" y="369" width="1140" height="121" as="geometry" />
        </mxCell>
        <mxCell id="Jbeqt2HLPeFKV9M9eCiw-42" value="План доходов" style="points=[[0.25,0,0],[0.5,0,0],[0.75,0,0],[1,0.25,0],[1,0.5,0],[1,0.75,0],[0.75,1,0],[0.5,1,0],[0.25,1,0],[0,0.75,0],[0,0.5,0],[0,0.25,0]];shape=mxgraph.bpmn.task;whiteSpace=wrap;rectStyle=rounded;size=10;html=1;container=1;expand=0;collapsible=0;taskMarker=abstract;isLoopSub=1;fontSize=9;" parent="Jbeqt2HLPeFKV9M9eCiw-30" vertex="1">
          <mxGeometry x="636" y="10" width="79" height="40" as="geometry" />
        </mxCell>
        <mxCell id="crRijYuh_1POvyGoVFcz-18" value="План расходов" style="points=[[0.25,0,0],[0.5,0,0],[0.75,0,0],[1,0.25,0],[1,0.5,0],[1,0.75,0],[0.75,1,0],[0.5,1,0],[0.25,1,0],[0,0.75,0],[0,0.5,0],[0,0.25,0]];shape=mxgraph.bpmn.task;whiteSpace=wrap;rectStyle=rounded;size=10;html=1;container=1;expand=0;collapsible=0;taskMarker=abstract;isLoopSub=1;fontSize=9;" parent="Jbeqt2HLPeFKV9M9eCiw-30" vertex="1">
          <mxGeometry x="636" y="60" width="79" height="40" as="geometry" />
        </mxCell>
        <mxCell id="crRijYuh_1POvyGoVFcz-57" value="Факт доходов" style="points=[[0.25,0,0],[0.5,0,0],[0.75,0,0],[1,0.25,0],[1,0.5,0],[1,0.75,0],[0.75,1,0],[0.5,1,0],[0.25,1,0],[0,0.75,0],[0,0.5,0],[0,0.25,0]];shape=mxgraph.bpmn.task;whiteSpace=wrap;rectStyle=rounded;size=10;html=1;container=1;expand=0;collapsible=0;taskMarker=abstract;isLoopSub=1;fontSize=9;" parent="Jbeqt2HLPeFKV9M9eCiw-30" vertex="1">
          <mxGeometry x="315.5" y="10" width="74.5" height="40" as="geometry" />
        </mxCell>
        <mxCell id="crRijYuh_1POvyGoVFcz-58" value="Факт расходов" style="points=[[0.25,0,0],[0.5,0,0],[0.75,0,0],[1,0.25,0],[1,0.5,0],[1,0.75,0],[0.75,1,0],[0.5,1,0],[0.25,1,0],[0,0.75,0],[0,0.5,0],[0,0.25,0]];shape=mxgraph.bpmn.task;whiteSpace=wrap;rectStyle=rounded;size=10;html=1;container=1;expand=0;collapsible=0;taskMarker=abstract;isLoopSub=1;fontSize=9;" parent="Jbeqt2HLPeFKV9M9eCiw-30" vertex="1">
          <mxGeometry x="315.5" y="60" width="74.5" height="40" as="geometry" />
        </mxCell>
        <mxCell id="crRijYuh_1POvyGoVFcz-197" style="edgeStyle=orthogonalEdgeStyle;rounded=0;orthogonalLoop=1;jettySize=auto;html=1;exitX=1;exitY=0.5;exitDx=0;exitDy=0;exitPerimeter=0;entryX=0;entryY=0.5;entryDx=0;entryDy=0;entryPerimeter=0;" parent="Jbeqt2HLPeFKV9M9eCiw-30" source="crRijYuh_1POvyGoVFcz-167" target="Jbeqt2HLPeFKV9M9eCiw-42" edge="1">
          <mxGeometry relative="1" as="geometry">
            <Array as="points">
              <mxPoint x="621" y="30" />
            </Array>
          </mxGeometry>
        </mxCell>
        <mxCell id="crRijYuh_1POvyGoVFcz-198" style="edgeStyle=orthogonalEdgeStyle;rounded=0;orthogonalLoop=1;jettySize=auto;html=1;entryX=0;entryY=0.5;entryDx=0;entryDy=0;entryPerimeter=0;exitX=1;exitY=0.5;exitDx=0;exitDy=0;exitPerimeter=0;" parent="Jbeqt2HLPeFKV9M9eCiw-30" source="crRijYuh_1POvyGoVFcz-167" target="crRijYuh_1POvyGoVFcz-18" edge="1">
          <mxGeometry relative="1" as="geometry">
            <Array as="points">
              <mxPoint x="621" y="80" />
            </Array>
          </mxGeometry>
        </mxCell>
        <mxCell id="crRijYuh_1POvyGoVFcz-167" value="" style="points=[[0.25,0.25,0],[0.5,0,0],[0.75,0.25,0],[1,0.5,0],[0.75,0.75,0],[0.5,1,0],[0.25,0.75,0],[0,0.5,0]];shape=mxgraph.bpmn.gateway2;html=1;verticalLabelPosition=bottom;labelBackgroundColor=#ffffff;verticalAlign=top;align=center;perimeter=rhombusPerimeter;outlineConnect=0;outline=none;symbol=none;gwType=parallel;" parent="Jbeqt2HLPeFKV9M9eCiw-30" vertex="1">
          <mxGeometry x="571" y="30" width="50" height="50" as="geometry" />
        </mxCell>
        <mxCell id="Jbeqt2HLPeFKV9M9eCiw-27" value="&lt;div style=&quot;font-size: 9px;&quot; align=&quot;left&quot;&gt;А1.3 Бюджет на месяц&lt;/div&gt;" style="swimlane;html=1;childLayout=stackLayout;resizeParent=1;resizeParentMax=0;horizontal=1;startSize=20;horizontalStack=0;whiteSpace=wrap;align=left;fontSize=9;" parent="Jbeqt2HLPeFKV9M9eCiw-30" vertex="1">
          <mxGeometry y="-230" width="1140" height="110" as="geometry">
            <mxRectangle x="19" y="130" width="170" height="30" as="alternateBounds" />
          </mxGeometry>
        </mxCell>
        <mxCell id="crRijYuh_1POvyGoVFcz-5" value="Генеральный директор" style="swimlane;html=1;startSize=31;horizontal=0;whiteSpace=wrap;fontSize=9;" parent="Jbeqt2HLPeFKV9M9eCiw-27" vertex="1">
          <mxGeometry y="20" width="1140" height="90" as="geometry" />
        </mxCell>
        <mxCell id="crRijYuh_1POvyGoVFcz-171" value="&lt;font style=&quot;font-size: 9px;&quot;&gt;Утверждение&lt;/font&gt;" style="points=[[0.25,0,0],[0.5,0,0],[0.75,0,0],[1,0.25,0],[1,0.5,0],[1,0.75,0],[0.75,1,0],[0.5,1,0],[0.25,1,0],[0,0.75,0],[0,0.5,0],[0,0.25,0]];shape=mxgraph.bpmn.task;whiteSpace=wrap;rectStyle=rounded;size=10;html=1;container=1;expand=0;collapsible=0;taskMarker=abstract;" parent="crRijYuh_1POvyGoVFcz-5" vertex="1">
          <mxGeometry x="1001" y="17.5" width="90" height="40" as="geometry" />
        </mxCell>
        <mxCell id="Jbeqt2HLPeFKV9M9eCiw-28" value="Финансы" style="swimlane;html=1;startSize=31;horizontal=0;whiteSpace=wrap;fontSize=9;spacing=0;" parent="Jbeqt2HLPeFKV9M9eCiw-30" vertex="1">
          <mxGeometry y="-120" width="1140" height="120" as="geometry">
            <mxRectangle y="20" width="480" height="31" as="alternateBounds" />
          </mxGeometry>
        </mxCell>
        <mxCell id="Jbeqt2HLPeFKV9M9eCiw-41" value="" style="edgeStyle=elbowEdgeStyle;fontSize=12;html=1;endArrow=blockThin;endFill=1;rounded=0;exitX=1;exitY=0.5;exitDx=0;exitDy=0;exitPerimeter=0;entryX=0;entryY=0.5;entryDx=0;entryDy=0;entryPerimeter=0;" parent="Jbeqt2HLPeFKV9M9eCiw-28" edge="1">
          <mxGeometry width="160" relative="1" as="geometry">
            <mxPoint x="80.5" y="90.5" as="sourcePoint" />
            <mxPoint x="91" y="90.5" as="targetPoint" />
          </mxGeometry>
        </mxCell>
        <mxCell id="crRijYuh_1POvyGoVFcz-161" style="rounded=0;orthogonalLoop=1;jettySize=auto;html=1;exitX=1;exitY=0.5;exitDx=0;exitDy=0;exitPerimeter=0;entryX=0;entryY=0.5;entryDx=0;entryDy=0;entryPerimeter=0;" parent="Jbeqt2HLPeFKV9M9eCiw-28" source="crRijYuh_1POvyGoVFcz-19" target="crRijYuh_1POvyGoVFcz-27" edge="1">
          <mxGeometry relative="1" as="geometry" />
        </mxCell>
        <mxCell id="crRijYuh_1POvyGoVFcz-19" value="Сводный бюджет" style="points=[[0.25,0,0],[0.5,0,0],[0.75,0,0],[1,0.25,0],[1,0.5,0],[1,0.75,0],[0.75,1,0],[0.5,1,0],[0.25,1,0],[0,0.75,0],[0,0.5,0],[0,0.25,0]];shape=mxgraph.bpmn.task;whiteSpace=wrap;rectStyle=rounded;size=10;html=1;container=1;expand=0;collapsible=0;taskMarker=abstract;isLoopSub=1;fontSize=9;" parent="Jbeqt2HLPeFKV9M9eCiw-28" vertex="1">
          <mxGeometry x="821" y="15" width="79" height="40" as="geometry" />
        </mxCell>
        <mxCell id="crRijYuh_1POvyGoVFcz-165" style="edgeStyle=orthogonalEdgeStyle;rounded=0;orthogonalLoop=1;jettySize=auto;html=1;exitX=1;exitY=0.5;exitDx=0;exitDy=0;exitPerimeter=0;entryX=0;entryY=0.5;entryDx=0;entryDy=0;entryPerimeter=0;" parent="Jbeqt2HLPeFKV9M9eCiw-28" source="crRijYuh_1POvyGoVFcz-27" target="crRijYuh_1POvyGoVFcz-125" edge="1">
          <mxGeometry relative="1" as="geometry" />
        </mxCell>
        <mxCell id="crRijYuh_1POvyGoVFcz-27" value="Согласование с генеральным директором" style="points=[[0.25,0,0],[0.5,0,0],[0.75,0,0],[1,0.25,0],[1,0.5,0],[1,0.75,0],[0.75,1,0],[0.5,1,0],[0.25,1,0],[0,0.75,0],[0,0.5,0],[0,0.25,0]];shape=mxgraph.bpmn.task;whiteSpace=wrap;rectStyle=rounded;size=10;html=1;container=1;expand=0;collapsible=0;taskMarker=abstract;isLoopSub=1;fontSize=9;" parent="Jbeqt2HLPeFKV9M9eCiw-28" vertex="1">
          <mxGeometry x="921" y="15" width="79" height="40" as="geometry" />
        </mxCell>
        <mxCell id="crRijYuh_1POvyGoVFcz-39" value="" style="points=[[0.145,0.145,0],[0.5,0,0],[0.855,0.145,0],[1,0.5,0],[0.855,0.855,0],[0.5,1,0],[0.145,0.855,0],[0,0.5,0]];shape=mxgraph.bpmn.event;html=1;verticalLabelPosition=bottom;labelBackgroundColor=#ffffff;verticalAlign=top;align=center;perimeter=ellipsePerimeter;outlineConnect=0;aspect=fixed;outline=standard;symbol=message;fillColor=#00FF00;" parent="Jbeqt2HLPeFKV9M9eCiw-28" vertex="1">
          <mxGeometry x="40.5" y="63.5" width="50" height="50" as="geometry" />
        </mxCell>
        <mxCell id="crRijYuh_1POvyGoVFcz-40" value="" style="points=[[0.25,0.25,0],[0.5,0,0],[0.75,0.25,0],[1,0.5,0],[0.75,0.75,0],[0.5,1,0],[0.25,0.75,0],[0,0.5,0]];shape=mxgraph.bpmn.gateway2;html=1;verticalLabelPosition=bottom;labelBackgroundColor=#ffffff;verticalAlign=top;align=center;perimeter=rhombusPerimeter;outlineConnect=0;outline=none;symbol=none;gwType=parallel;" parent="Jbeqt2HLPeFKV9M9eCiw-28" vertex="1">
          <mxGeometry x="265.5" y="63.5" width="50" height="50" as="geometry" />
        </mxCell>
        <mxCell id="crRijYuh_1POvyGoVFcz-42" value="" style="edgeStyle=elbowEdgeStyle;fontSize=12;html=1;endArrow=blockThin;endFill=1;rounded=0;entryX=0;entryY=0.5;entryDx=0;entryDy=0;entryPerimeter=0;exitX=1;exitY=0.5;exitDx=0;exitDy=0;exitPerimeter=0;" parent="Jbeqt2HLPeFKV9M9eCiw-28" source="crRijYuh_1POvyGoVFcz-39" target="crRijYuh_1POvyGoVFcz-56" edge="1">
          <mxGeometry width="160" relative="1" as="geometry">
            <mxPoint x="91" y="78.25999999999999" as="sourcePoint" />
            <mxPoint x="251" y="78.25999999999999" as="targetPoint" />
          </mxGeometry>
        </mxCell>
        <mxCell id="crRijYuh_1POvyGoVFcz-46" value="" style="edgeStyle=elbowEdgeStyle;fontSize=12;html=1;endArrow=blockThin;endFill=1;rounded=0;exitX=0.5;exitY=0;exitDx=0;exitDy=0;exitPerimeter=0;entryX=0;entryY=0.5;entryDx=0;entryDy=0;entryPerimeter=0;" parent="Jbeqt2HLPeFKV9M9eCiw-28" source="crRijYuh_1POvyGoVFcz-40" target="crRijYuh_1POvyGoVFcz-118" edge="1">
          <mxGeometry width="160" relative="1" as="geometry">
            <mxPoint x="315.5" y="88.08999999999997" as="sourcePoint" />
            <mxPoint x="411" y="30" as="targetPoint" />
            <Array as="points">
              <mxPoint x="290.5" y="50" />
            </Array>
          </mxGeometry>
        </mxCell>
        <mxCell id="crRijYuh_1POvyGoVFcz-55" value="" style="points=[[0.145,0.145,0],[0.5,0,0],[0.855,0.145,0],[1,0.5,0],[0.855,0.855,0],[0.5,1,0],[0.145,0.855,0],[0,0.5,0]];shape=mxgraph.bpmn.event;html=1;verticalLabelPosition=bottom;labelBackgroundColor=#ffffff;verticalAlign=top;align=center;perimeter=ellipsePerimeter;outlineConnect=0;aspect=fixed;outline=throwing;symbol=message;fillColor=#FF3333;" parent="Jbeqt2HLPeFKV9M9eCiw-28" vertex="1">
          <mxGeometry x="1081" y="10" width="50" height="50" as="geometry" />
        </mxCell>
        <mxCell id="crRijYuh_1POvyGoVFcz-56" value="" style="points=[[0.25,0.25,0],[0.5,0,0],[0.75,0.25,0],[1,0.5,0],[0.75,0.75,0],[0.5,1,0],[0.25,0.75,0],[0,0.5,0]];shape=mxgraph.bpmn.gateway2;html=1;verticalLabelPosition=bottom;labelBackgroundColor=#ffffff;verticalAlign=top;align=center;perimeter=rhombusPerimeter;outlineConnect=0;outline=end;symbol=general;" parent="Jbeqt2HLPeFKV9M9eCiw-28" vertex="1">
          <mxGeometry x="111" y="63.5" width="50" height="50" as="geometry" />
        </mxCell>
        <mxCell id="crRijYuh_1POvyGoVFcz-102" value="" style="edgeStyle=elbowEdgeStyle;fontSize=12;html=1;endArrow=blockThin;endFill=1;rounded=0;entryX=0;entryY=0.5;entryDx=0;entryDy=0;entryPerimeter=0;" parent="Jbeqt2HLPeFKV9M9eCiw-28" target="crRijYuh_1POvyGoVFcz-40" edge="1">
          <mxGeometry width="160" relative="1" as="geometry">
            <mxPoint x="161" y="88.16" as="sourcePoint" />
            <mxPoint x="321" y="88.16" as="targetPoint" />
          </mxGeometry>
        </mxCell>
        <mxCell id="crRijYuh_1POvyGoVFcz-118" value="" style="points=[[0.25,0.25,0],[0.5,0,0],[0.75,0.25,0],[1,0.5,0],[0.75,0.75,0],[0.5,1,0],[0.25,0.75,0],[0,0.5,0]];shape=mxgraph.bpmn.gateway2;html=1;verticalLabelPosition=bottom;labelBackgroundColor=#ffffff;verticalAlign=top;align=center;perimeter=rhombusPerimeter;outlineConnect=0;outline=end;symbol=general;" parent="Jbeqt2HLPeFKV9M9eCiw-28" vertex="1">
          <mxGeometry x="401" y="10" width="50" height="50" as="geometry" />
        </mxCell>
        <mxCell id="crRijYuh_1POvyGoVFcz-164" style="rounded=0;orthogonalLoop=1;jettySize=auto;html=1;exitX=1;exitY=0.5;exitDx=0;exitDy=0;exitPerimeter=0;entryX=0;entryY=0.5;entryDx=0;entryDy=0;entryPerimeter=0;" parent="Jbeqt2HLPeFKV9M9eCiw-28" source="crRijYuh_1POvyGoVFcz-121" target="crRijYuh_1POvyGoVFcz-19" edge="1">
          <mxGeometry relative="1" as="geometry" />
        </mxCell>
        <mxCell id="crRijYuh_1POvyGoVFcz-121" value="" style="points=[[0.25,0.25,0],[0.5,0,0],[0.75,0.25,0],[1,0.5,0],[0.75,0.75,0],[0.5,1,0],[0.25,0.75,0],[0,0.5,0]];shape=mxgraph.bpmn.gateway2;html=1;verticalLabelPosition=bottom;labelBackgroundColor=#ffffff;verticalAlign=top;align=center;perimeter=rhombusPerimeter;outlineConnect=0;outline=end;symbol=general;" parent="Jbeqt2HLPeFKV9M9eCiw-28" vertex="1">
          <mxGeometry x="761" y="10" width="50" height="50" as="geometry" />
        </mxCell>
        <mxCell id="crRijYuh_1POvyGoVFcz-124" style="edgeStyle=orthogonalEdgeStyle;rounded=0;orthogonalLoop=1;jettySize=auto;html=1;exitX=0.5;exitY=1;exitDx=0;exitDy=0;exitPerimeter=0;" parent="Jbeqt2HLPeFKV9M9eCiw-28" source="crRijYuh_1POvyGoVFcz-125" target="crRijYuh_1POvyGoVFcz-28" edge="1">
          <mxGeometry relative="1" as="geometry">
            <mxPoint x="1045.9999999999995" y="51" as="sourcePoint" />
          </mxGeometry>
        </mxCell>
        <mxCell id="crRijYuh_1POvyGoVFcz-130" style="edgeStyle=orthogonalEdgeStyle;rounded=0;orthogonalLoop=1;jettySize=auto;html=1;exitX=0;exitY=0.5;exitDx=0;exitDy=0;exitPerimeter=0;entryX=1;entryY=0.5;entryDx=0;entryDy=0;entryPerimeter=0;" parent="Jbeqt2HLPeFKV9M9eCiw-28" source="crRijYuh_1POvyGoVFcz-28" target="crRijYuh_1POvyGoVFcz-54" edge="1">
          <mxGeometry relative="1" as="geometry" />
        </mxCell>
        <mxCell id="crRijYuh_1POvyGoVFcz-28" value="Корректировка" style="points=[[0.25,0,0],[0.5,0,0],[0.75,0,0],[1,0.25,0],[1,0.5,0],[1,0.75,0],[0.75,1,0],[0.5,1,0],[0.25,1,0],[0,0.75,0],[0,0.5,0],[0,0.25,0]];shape=mxgraph.bpmn.task;whiteSpace=wrap;rectStyle=rounded;size=10;html=1;container=1;expand=0;collapsible=0;taskMarker=abstract;isLoopSub=1;fontSize=9;" parent="Jbeqt2HLPeFKV9M9eCiw-28" vertex="1">
          <mxGeometry x="1006.5" y="73.5" width="79" height="40" as="geometry" />
        </mxCell>
        <mxCell id="crRijYuh_1POvyGoVFcz-54" value="" style="points=[[0.25,0.25,0],[0.5,0,0],[0.75,0.25,0],[1,0.5,0],[0.75,0.75,0],[0.5,1,0],[0.25,0.75,0],[0,0.5,0]];shape=mxgraph.bpmn.gateway2;html=1;verticalLabelPosition=bottom;labelBackgroundColor=#ffffff;verticalAlign=top;align=center;perimeter=rhombusPerimeter;outlineConnect=0;outline=none;symbol=none;gwType=parallel;" parent="Jbeqt2HLPeFKV9M9eCiw-28" vertex="1">
          <mxGeometry x="761" y="68.5" width="50" height="50" as="geometry" />
        </mxCell>
        <mxCell id="crRijYuh_1POvyGoVFcz-128" style="edgeStyle=orthogonalEdgeStyle;rounded=0;orthogonalLoop=1;jettySize=auto;html=1;exitX=1;exitY=0.5;exitDx=0;exitDy=0;exitPerimeter=0;entryX=0;entryY=0.5;entryDx=0;entryDy=0;entryPerimeter=0;" parent="Jbeqt2HLPeFKV9M9eCiw-28" source="crRijYuh_1POvyGoVFcz-125" target="crRijYuh_1POvyGoVFcz-55" edge="1">
          <mxGeometry relative="1" as="geometry" />
        </mxCell>
        <mxCell id="crRijYuh_1POvyGoVFcz-125" value="" style="points=[[0.25,0.25,0],[0.5,0,0],[0.75,0.25,0],[1,0.5,0],[0.75,0.75,0],[0.5,1,0],[0.25,0.75,0],[0,0.5,0]];shape=mxgraph.bpmn.gateway2;html=1;verticalLabelPosition=bottom;labelBackgroundColor=#ffffff;verticalAlign=top;align=center;perimeter=rhombusPerimeter;outlineConnect=0;outline=end;symbol=general;" parent="Jbeqt2HLPeFKV9M9eCiw-28" vertex="1">
          <mxGeometry x="1021" y="10" width="50" height="50" as="geometry" />
        </mxCell>
        <mxCell id="crRijYuh_1POvyGoVFcz-126" value="&lt;font style=&quot;font-size: 9px;&quot;&gt;Не согласован&lt;/font&gt;" style="text;html=1;strokeColor=none;fillColor=none;align=center;verticalAlign=middle;whiteSpace=wrap;rounded=0;" parent="Jbeqt2HLPeFKV9M9eCiw-28" vertex="1">
          <mxGeometry x="977" y="61" width="70" as="geometry" />
        </mxCell>
        <mxCell id="crRijYuh_1POvyGoVFcz-129" value="&lt;font style=&quot;font-size: 9px;&quot;&gt;Согласован&lt;/font&gt;" style="text;html=1;strokeColor=none;fillColor=none;align=center;verticalAlign=middle;whiteSpace=wrap;rounded=0;" parent="Jbeqt2HLPeFKV9M9eCiw-28" vertex="1">
          <mxGeometry x="999" y="5" width="40" as="geometry" />
        </mxCell>
        <mxCell id="crRijYuh_1POvyGoVFcz-127" value="&lt;font style=&quot;font-size: 9px;&quot;&gt;Утверждён&lt;/font&gt;" style="text;html=1;strokeColor=none;fillColor=none;align=center;verticalAlign=middle;whiteSpace=wrap;rounded=0;" parent="Jbeqt2HLPeFKV9M9eCiw-28" vertex="1">
          <mxGeometry x="1039" y="7" width="70" as="geometry" />
        </mxCell>
        <mxCell id="crRijYuh_1POvyGoVFcz-123" style="edgeStyle=orthogonalEdgeStyle;rounded=0;orthogonalLoop=1;jettySize=auto;html=1;exitX=0.5;exitY=0;exitDx=0;exitDy=0;exitPerimeter=0;entryX=0.5;entryY=1;entryDx=0;entryDy=0;entryPerimeter=0;" parent="Jbeqt2HLPeFKV9M9eCiw-30" source="crRijYuh_1POvyGoVFcz-125" edge="1">
          <mxGeometry relative="1" as="geometry">
            <mxPoint x="1045.9999999999995" y="-119" as="sourcePoint" />
            <mxPoint x="1046" y="-152.5" as="targetPoint" />
          </mxGeometry>
        </mxCell>
        <mxCell id="crRijYuh_1POvyGoVFcz-60" value="" style="edgeStyle=elbowEdgeStyle;fontSize=12;html=1;endArrow=blockThin;endFill=1;rounded=0;entryX=0;entryY=0.5;entryDx=0;entryDy=0;entryPerimeter=0;exitX=0.5;exitY=1;exitDx=0;exitDy=0;exitPerimeter=0;" parent="Jbeqt2HLPeFKV9M9eCiw-30" source="crRijYuh_1POvyGoVFcz-40" target="crRijYuh_1POvyGoVFcz-58" edge="1">
          <mxGeometry width="160" relative="1" as="geometry">
            <mxPoint x="290.5" y="-60" as="sourcePoint" />
            <mxPoint x="330.5" y="30" as="targetPoint" />
            <Array as="points">
              <mxPoint x="290.5" y="20" />
            </Array>
          </mxGeometry>
        </mxCell>
        <mxCell id="crRijYuh_1POvyGoVFcz-59" value="" style="edgeStyle=elbowEdgeStyle;fontSize=12;html=1;endArrow=blockThin;endFill=1;rounded=0;exitX=0.5;exitY=1;exitDx=0;exitDy=0;exitPerimeter=0;entryX=0;entryY=0.5;entryDx=0;entryDy=0;entryPerimeter=0;" parent="Jbeqt2HLPeFKV9M9eCiw-30" source="crRijYuh_1POvyGoVFcz-40" target="crRijYuh_1POvyGoVFcz-57" edge="1">
          <mxGeometry width="160" relative="1" as="geometry">
            <mxPoint x="175.5" y="-20" as="sourcePoint" />
            <mxPoint x="335.5" y="-20" as="targetPoint" />
            <Array as="points">
              <mxPoint x="290.5" y="-10" />
            </Array>
          </mxGeometry>
        </mxCell>
        <mxCell id="crRijYuh_1POvyGoVFcz-195" style="edgeStyle=orthogonalEdgeStyle;rounded=0;orthogonalLoop=1;jettySize=auto;html=1;entryX=0;entryY=0.5;entryDx=0;entryDy=0;entryPerimeter=0;exitX=1;exitY=0.5;exitDx=0;exitDy=0;exitPerimeter=0;" parent="Jbeqt2HLPeFKV9M9eCiw-30" source="Jbeqt2HLPeFKV9M9eCiw-42" target="crRijYuh_1POvyGoVFcz-121" edge="1">
          <mxGeometry relative="1" as="geometry">
            <mxPoint x="761" y="-160" as="targetPoint" />
            <Array as="points">
              <mxPoint x="721" y="30" />
              <mxPoint x="721" y="-85" />
            </Array>
          </mxGeometry>
        </mxCell>
        <mxCell id="crRijYuh_1POvyGoVFcz-196" style="edgeStyle=orthogonalEdgeStyle;rounded=0;orthogonalLoop=1;jettySize=auto;html=1;exitX=1;exitY=0.5;exitDx=0;exitDy=0;exitPerimeter=0;entryX=0;entryY=0.5;entryDx=0;entryDy=0;entryPerimeter=0;" parent="Jbeqt2HLPeFKV9M9eCiw-30" source="crRijYuh_1POvyGoVFcz-18" target="crRijYuh_1POvyGoVFcz-121" edge="1">
          <mxGeometry relative="1" as="geometry">
            <mxPoint x="731" y="-120" as="targetPoint" />
            <Array as="points">
              <mxPoint x="721" y="80" />
              <mxPoint x="721" y="-85" />
            </Array>
          </mxGeometry>
        </mxCell>
        <mxCell id="Jbeqt2HLPeFKV9M9eCiw-31" value="Логистика" style="swimlane;html=1;startSize=31;horizontal=0;whiteSpace=wrap;fontSize=9;" parent="Jbeqt2HLPeFKV9M9eCiw-30" vertex="1">
          <mxGeometry y="121" width="1140" height="109" as="geometry" />
        </mxCell>
        <mxCell id="crRijYuh_1POvyGoVFcz-157" style="edgeStyle=orthogonalEdgeStyle;rounded=0;orthogonalLoop=1;jettySize=auto;html=1;exitX=1;exitY=0.25;exitDx=0;exitDy=0;exitPerimeter=0;entryX=0.013;entryY=0.568;entryDx=0;entryDy=0;entryPerimeter=0;" parent="Jbeqt2HLPeFKV9M9eCiw-31" source="Jbeqt2HLPeFKV9M9eCiw-48" target="crRijYuh_1POvyGoVFcz-44" edge="1">
          <mxGeometry relative="1" as="geometry" />
        </mxCell>
        <mxCell id="Jbeqt2HLPeFKV9M9eCiw-48" value="&lt;div&gt;План завоза/вывоза&lt;/div&gt;&lt;div&gt;(исполнение контрактов&lt;br&gt;&lt;/div&gt;" style="points=[[0.25,0,0],[0.5,0,0],[0.75,0,0],[1,0.25,0],[1,0.5,0],[1,0.75,0],[0.75,1,0],[0.5,1,0],[0.25,1,0],[0,0.75,0],[0,0.5,0],[0,0.25,0]];shape=mxgraph.bpmn.task;whiteSpace=wrap;rectStyle=rounded;size=10;html=1;container=1;expand=0;collapsible=0;taskMarker=abstract;isLoopSub=1;fontSize=9;" parent="Jbeqt2HLPeFKV9M9eCiw-31" vertex="1">
          <mxGeometry x="315.5" y="10" width="74.5" height="90" as="geometry" />
        </mxCell>
        <mxCell id="crRijYuh_1POvyGoVFcz-137" style="edgeStyle=orthogonalEdgeStyle;rounded=0;orthogonalLoop=1;jettySize=auto;html=1;" parent="Jbeqt2HLPeFKV9M9eCiw-31" source="crRijYuh_1POvyGoVFcz-44" target="crRijYuh_1POvyGoVFcz-47" edge="1">
          <mxGeometry relative="1" as="geometry" />
        </mxCell>
        <mxCell id="crRijYuh_1POvyGoVFcz-44" value="Согласование с генеральным директором" style="points=[[0.25,0,0],[0.5,0,0],[0.75,0,0],[1,0.25,0],[1,0.5,0],[1,0.75,0],[0.75,1,0],[0.5,1,0],[0.25,1,0],[0,0.75,0],[0,0.5,0],[0,0.25,0]];shape=mxgraph.bpmn.task;whiteSpace=wrap;rectStyle=rounded;size=10;html=1;container=1;expand=0;collapsible=0;taskMarker=abstract;isLoopSub=1;fontSize=9;" parent="Jbeqt2HLPeFKV9M9eCiw-31" vertex="1">
          <mxGeometry x="401" y="10" width="79" height="40" as="geometry" />
        </mxCell>
        <mxCell id="crRijYuh_1POvyGoVFcz-158" style="edgeStyle=orthogonalEdgeStyle;rounded=0;orthogonalLoop=1;jettySize=auto;html=1;exitX=0;exitY=0.5;exitDx=0;exitDy=0;exitPerimeter=0;entryX=0.991;entryY=0.778;entryDx=0;entryDy=0;entryPerimeter=0;" parent="Jbeqt2HLPeFKV9M9eCiw-31" source="crRijYuh_1POvyGoVFcz-45" target="Jbeqt2HLPeFKV9M9eCiw-48" edge="1">
          <mxGeometry relative="1" as="geometry" />
        </mxCell>
        <mxCell id="crRijYuh_1POvyGoVFcz-45" value="Корректировка" style="points=[[0.25,0,0],[0.5,0,0],[0.75,0,0],[1,0.25,0],[1,0.5,0],[1,0.75,0],[0.75,1,0],[0.5,1,0],[0.25,1,0],[0,0.75,0],[0,0.5,0],[0,0.25,0]];shape=mxgraph.bpmn.task;whiteSpace=wrap;rectStyle=rounded;size=10;html=1;container=1;expand=0;collapsible=0;taskMarker=abstract;isLoopSub=1;fontSize=9;" parent="Jbeqt2HLPeFKV9M9eCiw-31" vertex="1">
          <mxGeometry x="401" y="60" width="79" height="40" as="geometry" />
        </mxCell>
        <mxCell id="crRijYuh_1POvyGoVFcz-138" style="edgeStyle=orthogonalEdgeStyle;rounded=0;orthogonalLoop=1;jettySize=auto;html=1;entryX=1;entryY=0.5;entryDx=0;entryDy=0;entryPerimeter=0;exitX=0.5;exitY=1;exitDx=0;exitDy=0;exitPerimeter=0;" parent="Jbeqt2HLPeFKV9M9eCiw-31" source="crRijYuh_1POvyGoVFcz-47" target="crRijYuh_1POvyGoVFcz-45" edge="1">
          <mxGeometry relative="1" as="geometry" />
        </mxCell>
        <mxCell id="crRijYuh_1POvyGoVFcz-47" value="" style="points=[[0.25,0.25,0],[0.5,0,0],[0.75,0.25,0],[1,0.5,0],[0.75,0.75,0],[0.5,1,0],[0.25,0.75,0],[0,0.5,0]];shape=mxgraph.bpmn.gateway2;html=1;verticalLabelPosition=bottom;labelBackgroundColor=#ffffff;verticalAlign=top;align=center;perimeter=rhombusPerimeter;outlineConnect=0;outline=none;symbol=none;gwType=exclusive;" parent="Jbeqt2HLPeFKV9M9eCiw-31" vertex="1">
          <mxGeometry x="501" y="5" width="50" height="50" as="geometry" />
        </mxCell>
        <mxCell id="crRijYuh_1POvyGoVFcz-63" value="" style="points=[[0.145,0.145,0],[0.5,0,0],[0.855,0.145,0],[1,0.5,0],[0.855,0.855,0],[0.5,1,0],[0.145,0.855,0],[0,0.5,0]];shape=mxgraph.bpmn.event;html=1;verticalLabelPosition=bottom;labelBackgroundColor=#ffffff;verticalAlign=top;align=center;perimeter=ellipsePerimeter;outlineConnect=0;aspect=fixed;outline=standard;symbol=message;" parent="Jbeqt2HLPeFKV9M9eCiw-31" vertex="1">
          <mxGeometry x="41" y="55" width="50" height="50" as="geometry" />
        </mxCell>
        <mxCell id="crRijYuh_1POvyGoVFcz-78" value="" style="edgeStyle=elbowEdgeStyle;fontSize=12;html=1;endFill=0;startFill=0;endSize=6;startSize=6;dashed=1;dashPattern=1 4;endArrow=none;startArrow=none;rounded=0;" parent="Jbeqt2HLPeFKV9M9eCiw-31" edge="1">
          <mxGeometry width="160" relative="1" as="geometry">
            <mxPoint x="141" y="156" as="sourcePoint" />
            <mxPoint x="181" y="156.32" as="targetPoint" />
          </mxGeometry>
        </mxCell>
        <mxCell id="crRijYuh_1POvyGoVFcz-82" value="" style="edgeStyle=elbowEdgeStyle;fontSize=12;html=1;endFill=0;startFill=0;endSize=6;startSize=6;dashed=1;dashPattern=1 4;endArrow=none;startArrow=none;rounded=0;" parent="Jbeqt2HLPeFKV9M9eCiw-31" edge="1">
          <mxGeometry width="160" relative="1" as="geometry">
            <mxPoint x="141" y="266.32000000000005" as="sourcePoint" />
            <mxPoint x="181" y="266.32000000000005" as="targetPoint" />
          </mxGeometry>
        </mxCell>
        <mxCell id="crRijYuh_1POvyGoVFcz-84" value="&lt;p style=&quot;line-height: 70%;&quot;&gt;&lt;font style=&quot;font-size: 9px;&quot;&gt;Факт работ, расхода материалов, пололнения запсов и т.д.&lt;br&gt;&lt;/font&gt;&lt;/p&gt;" style="text;html=1;strokeColor=none;fillColor=none;align=center;verticalAlign=middle;whiteSpace=wrap;rounded=0;" parent="Jbeqt2HLPeFKV9M9eCiw-31" vertex="1">
          <mxGeometry x="141" y="275" width="95" height="55" as="geometry" />
        </mxCell>
        <mxCell id="crRijYuh_1POvyGoVFcz-65" value="" style="group;fontSize=9;" parent="Jbeqt2HLPeFKV9M9eCiw-31" vertex="1" connectable="0">
          <mxGeometry x="131" y="10" width="95" height="80" as="geometry" />
        </mxCell>
        <mxCell id="crRijYuh_1POvyGoVFcz-66" value="" style="edgeStyle=elbowEdgeStyle;fontSize=12;html=1;endFill=0;startFill=0;endSize=6;startSize=6;dashed=1;dashPattern=1 4;endArrow=none;startArrow=none;rounded=0;" parent="crRijYuh_1POvyGoVFcz-65" edge="1">
          <mxGeometry width="160" relative="1" as="geometry">
            <mxPoint x="10" y="31.32" as="sourcePoint" />
            <mxPoint x="50" y="31.32" as="targetPoint" />
          </mxGeometry>
        </mxCell>
        <mxCell id="crRijYuh_1POvyGoVFcz-67" value="" style="group" parent="crRijYuh_1POvyGoVFcz-65" vertex="1" connectable="0">
          <mxGeometry width="95" height="80" as="geometry" />
        </mxCell>
        <mxCell id="crRijYuh_1POvyGoVFcz-69" value="&lt;p style=&quot;line-height: 70%;&quot;&gt;&lt;font style=&quot;font-size: 9px;&quot;&gt;Факт перевалки по клиентам&lt;br&gt;(Исполнение завоза-вывоза)&lt;/font&gt;&lt;/p&gt;" style="text;html=1;strokeColor=none;fillColor=none;align=center;verticalAlign=middle;whiteSpace=wrap;rounded=0;" parent="crRijYuh_1POvyGoVFcz-67" vertex="1">
          <mxGeometry x="10" y="40" width="95" height="40" as="geometry" />
        </mxCell>
        <mxCell id="crRijYuh_1POvyGoVFcz-89" value="" style="edgeStyle=elbowEdgeStyle;fontSize=12;html=1;endArrow=blockThin;endFill=1;rounded=0;entryX=0.5;entryY=1;entryDx=0;entryDy=0;entryPerimeter=0;" parent="Jbeqt2HLPeFKV9M9eCiw-31" target="crRijYuh_1POvyGoVFcz-56" edge="1">
          <mxGeometry width="160" relative="1" as="geometry">
            <mxPoint x="91" y="190" as="sourcePoint" />
            <mxPoint x="251" y="190" as="targetPoint" />
            <Array as="points">
              <mxPoint x="136" y="40" />
            </Array>
          </mxGeometry>
        </mxCell>
        <mxCell id="crRijYuh_1POvyGoVFcz-90" value="" style="edgeStyle=elbowEdgeStyle;fontSize=12;html=1;endArrow=blockThin;endFill=1;rounded=0;entryX=0.5;entryY=1;entryDx=0;entryDy=0;entryPerimeter=0;" parent="Jbeqt2HLPeFKV9M9eCiw-31" target="crRijYuh_1POvyGoVFcz-56" edge="1">
          <mxGeometry width="160" relative="1" as="geometry">
            <mxPoint x="91" y="79.5" as="sourcePoint" />
            <mxPoint x="251" y="79.5" as="targetPoint" />
            <Array as="points">
              <mxPoint x="136" y="-20" />
            </Array>
          </mxGeometry>
        </mxCell>
        <mxCell id="crRijYuh_1POvyGoVFcz-93" value="" style="shape=mxgraph.bpmn.data;labelPosition=center;verticalLabelPosition=bottom;align=center;verticalAlign=top;size=15;html=1;bpmnTransferType=output;isCollection=1;fillColor=#66FFFF;" parent="Jbeqt2HLPeFKV9M9eCiw-31" vertex="1">
          <mxGeometry x="181" y="130" width="29" height="40" as="geometry" />
        </mxCell>
        <mxCell id="crRijYuh_1POvyGoVFcz-81" value="&lt;p style=&quot;line-height: 70%;&quot;&gt;&lt;font style=&quot;font-size: 9px;&quot;&gt;Факт перевалки по грузам&lt;br&gt;(Выполнение перевалки по номенклатуре))&lt;/font&gt;&lt;/p&gt;" style="text;html=1;strokeColor=none;fillColor=none;align=center;verticalAlign=middle;whiteSpace=wrap;rounded=0;" parent="Jbeqt2HLPeFKV9M9eCiw-31" vertex="1">
          <mxGeometry x="141" y="165" width="95" height="55" as="geometry" />
        </mxCell>
        <mxCell id="crRijYuh_1POvyGoVFcz-99" value="" style="shape=mxgraph.bpmn.data;labelPosition=center;verticalLabelPosition=bottom;align=center;verticalAlign=top;size=15;html=1;bpmnTransferType=output;isCollection=1;fillColor=#66FFFF;" parent="Jbeqt2HLPeFKV9M9eCiw-31" vertex="1">
          <mxGeometry x="171" y="10" width="29" height="40" as="geometry" />
        </mxCell>
        <mxCell id="crRijYuh_1POvyGoVFcz-100" value="" style="shape=datastore;html=1;labelPosition=center;verticalLabelPosition=bottom;align=center;verticalAlign=top;fillColor=#66FFFF;" parent="Jbeqt2HLPeFKV9M9eCiw-31" vertex="1">
          <mxGeometry x="239" y="10" width="40" height="45" as="geometry" />
        </mxCell>
        <mxCell id="crRijYuh_1POvyGoVFcz-147" style="edgeStyle=orthogonalEdgeStyle;rounded=0;orthogonalLoop=1;jettySize=auto;html=1;exitX=1;exitY=0.25;exitDx=0;exitDy=0;exitPerimeter=0;entryX=0.018;entryY=0.563;entryDx=0;entryDy=0;entryPerimeter=0;" parent="Jbeqt2HLPeFKV9M9eCiw-31" source="Jbeqt2HLPeFKV9M9eCiw-39" target="crRijYuh_1POvyGoVFcz-16" edge="1">
          <mxGeometry relative="1" as="geometry" />
        </mxCell>
        <mxCell id="Jbeqt2HLPeFKV9M9eCiw-39" value="&lt;div&gt;План перевалки&lt;/div&gt;&lt;div&gt;(реализация)&lt;br&gt;&lt;/div&gt;" style="points=[[0.25,0,0],[0.5,0,0],[0.75,0,0],[1,0.25,0],[1,0.5,0],[1,0.75,0],[0.75,1,0],[0.5,1,0],[0.25,1,0],[0,0.75,0],[0,0.5,0],[0,0.25,0]];shape=mxgraph.bpmn.task;whiteSpace=wrap;rectStyle=rounded;size=10;html=1;container=1;expand=0;collapsible=0;taskMarker=abstract;isLoopSub=1;fontSize=9;" parent="Jbeqt2HLPeFKV9M9eCiw-31" vertex="1">
          <mxGeometry x="315.5" y="120" width="74.5" height="90" as="geometry" />
        </mxCell>
        <mxCell id="crRijYuh_1POvyGoVFcz-16" value="Согласование с логистикой" style="points=[[0.25,0,0],[0.5,0,0],[0.75,0,0],[1,0.25,0],[1,0.5,0],[1,0.75,0],[0.75,1,0],[0.5,1,0],[0.25,1,0],[0,0.75,0],[0,0.5,0],[0,0.25,0]];shape=mxgraph.bpmn.task;whiteSpace=wrap;rectStyle=rounded;size=10;html=1;container=1;expand=0;collapsible=0;taskMarker=abstract;isLoopSub=1;fontSize=9;" parent="Jbeqt2HLPeFKV9M9eCiw-31" vertex="1">
          <mxGeometry x="401" y="120" width="79" height="40" as="geometry" />
        </mxCell>
        <mxCell id="crRijYuh_1POvyGoVFcz-145" style="rounded=0;orthogonalLoop=1;jettySize=auto;html=1;entryX=0.981;entryY=0.775;entryDx=0;entryDy=0;entryPerimeter=0;" parent="Jbeqt2HLPeFKV9M9eCiw-31" source="crRijYuh_1POvyGoVFcz-17" target="Jbeqt2HLPeFKV9M9eCiw-39" edge="1">
          <mxGeometry relative="1" as="geometry" />
        </mxCell>
        <mxCell id="crRijYuh_1POvyGoVFcz-17" value="Корректировка" style="points=[[0.25,0,0],[0.5,0,0],[0.75,0,0],[1,0.25,0],[1,0.5,0],[1,0.75,0],[0.75,1,0],[0.5,1,0],[0.25,1,0],[0,0.75,0],[0,0.5,0],[0,0.25,0]];shape=mxgraph.bpmn.task;whiteSpace=wrap;rectStyle=rounded;size=10;html=1;container=1;expand=0;collapsible=0;taskMarker=abstract;isLoopSub=1;fontSize=9;" parent="Jbeqt2HLPeFKV9M9eCiw-31" vertex="1">
          <mxGeometry x="401" y="170" width="79" height="40" as="geometry" />
        </mxCell>
        <mxCell id="crRijYuh_1POvyGoVFcz-13" value="Согласование с эксплуатацией" style="points=[[0.25,0,0],[0.5,0,0],[0.75,0,0],[1,0.25,0],[1,0.5,0],[1,0.75,0],[0.75,1,0],[0.5,1,0],[0.25,1,0],[0,0.75,0],[0,0.5,0],[0,0.25,0]];shape=mxgraph.bpmn.task;whiteSpace=wrap;rectStyle=rounded;size=10;html=1;container=1;expand=0;collapsible=0;taskMarker=abstract;isLoopSub=1;fontSize=9;" parent="Jbeqt2HLPeFKV9M9eCiw-31" vertex="1">
          <mxGeometry x="401" y="230" width="79" height="40" as="geometry" />
        </mxCell>
        <mxCell id="crRijYuh_1POvyGoVFcz-15" value="&lt;div&gt;Корректировка&lt;/div&gt;" style="points=[[0.25,0,0],[0.5,0,0],[0.75,0,0],[1,0.25,0],[1,0.5,0],[1,0.75,0],[0.75,1,0],[0.5,1,0],[0.25,1,0],[0,0.75,0],[0,0.5,0],[0,0.25,0]];shape=mxgraph.bpmn.task;whiteSpace=wrap;rectStyle=rounded;size=10;html=1;container=1;expand=0;collapsible=0;taskMarker=abstract;isLoopSub=1;fontSize=9;" parent="Jbeqt2HLPeFKV9M9eCiw-31" vertex="1">
          <mxGeometry x="401" y="280" width="79" height="40" as="geometry" />
        </mxCell>
        <mxCell id="crRijYuh_1POvyGoVFcz-176" value="&lt;font style=&quot;font-size: 9px;&quot;&gt;Согласован&lt;/font&gt;" style="text;html=1;strokeColor=none;fillColor=none;align=center;verticalAlign=middle;whiteSpace=wrap;rounded=0;" parent="Jbeqt2HLPeFKV9M9eCiw-31" vertex="1">
          <mxGeometry x="571" y="27.5" width="40" as="geometry" />
        </mxCell>
        <mxCell id="crRijYuh_1POvyGoVFcz-177" value="&lt;font style=&quot;font-size: 9px;&quot;&gt;Не согласован&lt;br&gt;&lt;/font&gt;" style="text;html=1;strokeColor=none;fillColor=none;align=center;verticalAlign=middle;whiteSpace=wrap;rounded=0;" parent="Jbeqt2HLPeFKV9M9eCiw-31" vertex="1">
          <mxGeometry x="480" y="70" width="63" as="geometry" />
        </mxCell>
        <mxCell id="Jbeqt2HLPeFKV9M9eCiw-29" value="Эксплуатация" style="swimlane;html=1;startSize=31;horizontal=0;whiteSpace=wrap;fontSize=9;" parent="Jbeqt2HLPeFKV9M9eCiw-31" vertex="1">
          <mxGeometry y="110" width="1140" height="110" as="geometry" />
        </mxCell>
        <mxCell id="crRijYuh_1POvyGoVFcz-49" value="" style="points=[[0.25,0.25,0],[0.5,0,0],[0.75,0.25,0],[1,0.5,0],[0.75,0.75,0],[0.5,1,0],[0.25,0.75,0],[0,0.5,0]];shape=mxgraph.bpmn.gateway2;html=1;verticalLabelPosition=bottom;labelBackgroundColor=#ffffff;verticalAlign=top;align=center;perimeter=rhombusPerimeter;outlineConnect=0;outline=none;symbol=none;gwType=exclusive;" parent="Jbeqt2HLPeFKV9M9eCiw-29" vertex="1">
          <mxGeometry x="501" y="5" width="50" height="50" as="geometry" />
        </mxCell>
        <mxCell id="crRijYuh_1POvyGoVFcz-62" value="" style="points=[[0.145,0.145,0],[0.5,0,0],[0.855,0.145,0],[1,0.5,0],[0.855,0.855,0],[0.5,1,0],[0.145,0.855,0],[0,0.5,0]];shape=mxgraph.bpmn.event;html=1;verticalLabelPosition=bottom;labelBackgroundColor=#ffffff;verticalAlign=top;align=center;perimeter=ellipsePerimeter;outlineConnect=0;aspect=fixed;outline=standard;symbol=message;" parent="Jbeqt2HLPeFKV9M9eCiw-29" vertex="1">
          <mxGeometry x="41" y="55" width="50" height="50" as="geometry" />
        </mxCell>
        <mxCell id="crRijYuh_1POvyGoVFcz-186" value="&lt;font style=&quot;font-size: 9px;&quot;&gt;Согласован&lt;/font&gt;" style="text;html=1;strokeColor=none;fillColor=none;align=center;verticalAlign=middle;whiteSpace=wrap;rounded=0;" parent="Jbeqt2HLPeFKV9M9eCiw-29" vertex="1">
          <mxGeometry x="571" y="30" width="40" as="geometry" />
        </mxCell>
        <mxCell id="crRijYuh_1POvyGoVFcz-188" value="&lt;font style=&quot;font-size: 9px;&quot;&gt;Не согласован&lt;br&gt;&lt;/font&gt;" style="text;html=1;strokeColor=none;fillColor=none;align=center;verticalAlign=middle;whiteSpace=wrap;rounded=0;" parent="Jbeqt2HLPeFKV9M9eCiw-29" vertex="1">
          <mxGeometry x="481" y="70" width="63" as="geometry" />
        </mxCell>
        <mxCell id="crRijYuh_1POvyGoVFcz-3" value="Прочие подразделения" style="swimlane;html=1;startSize=31;horizontal=0;whiteSpace=wrap;fontSize=9;" parent="Jbeqt2HLPeFKV9M9eCiw-29" vertex="1">
          <mxGeometry y="110" width="1140" height="110" as="geometry" />
        </mxCell>
        <mxCell id="crRijYuh_1POvyGoVFcz-11" value="Планы ремонтов&lt;br&gt;Планы строительства&lt;br&gt;&lt;div&gt;Планы выхода персонала&lt;/div&gt;&lt;div&gt;и т.д.&lt;/div&gt;" style="points=[[0.25,0,0],[0.5,0,0],[0.75,0,0],[1,0.25,0],[1,0.5,0],[1,0.75,0],[0.75,1,0],[0.5,1,0],[0.25,1,0],[0,0.75,0],[0,0.5,0],[0,0.25,0]];shape=mxgraph.bpmn.task;whiteSpace=wrap;rectStyle=rounded;size=10;html=1;container=1;expand=0;collapsible=0;taskMarker=abstract;isLoopSub=1;fontSize=9;" parent="crRijYuh_1POvyGoVFcz-3" vertex="1">
          <mxGeometry x="315.5" y="10" width="74.5" height="90" as="geometry" />
        </mxCell>
        <mxCell id="crRijYuh_1POvyGoVFcz-50" value="" style="points=[[0.25,0.25,0],[0.5,0,0],[0.75,0.25,0],[1,0.5,0],[0.75,0.75,0],[0.5,1,0],[0.25,0.75,0],[0,0.5,0]];shape=mxgraph.bpmn.gateway2;html=1;verticalLabelPosition=bottom;labelBackgroundColor=#ffffff;verticalAlign=top;align=center;perimeter=rhombusPerimeter;outlineConnect=0;outline=none;symbol=none;gwType=exclusive;" parent="crRijYuh_1POvyGoVFcz-3" vertex="1">
          <mxGeometry x="501" y="5" width="50" height="50" as="geometry" />
        </mxCell>
        <mxCell id="crRijYuh_1POvyGoVFcz-64" value="" style="points=[[0.145,0.145,0],[0.5,0,0],[0.855,0.145,0],[1,0.5,0],[0.855,0.855,0],[0.5,1,0],[0.145,0.855,0],[0,0.5,0]];shape=mxgraph.bpmn.event;html=1;verticalLabelPosition=bottom;labelBackgroundColor=#ffffff;verticalAlign=top;align=center;perimeter=ellipsePerimeter;outlineConnect=0;aspect=fixed;outline=standard;symbol=message;" parent="crRijYuh_1POvyGoVFcz-3" vertex="1">
          <mxGeometry x="41" y="55" width="50" height="50" as="geometry" />
        </mxCell>
        <mxCell id="crRijYuh_1POvyGoVFcz-88" value="" style="edgeStyle=elbowEdgeStyle;fontSize=12;html=1;endArrow=blockThin;endFill=1;rounded=0;entryX=0.5;entryY=1;entryDx=0;entryDy=0;entryPerimeter=0;" parent="crRijYuh_1POvyGoVFcz-3" target="crRijYuh_1POvyGoVFcz-56" edge="1">
          <mxGeometry width="160" relative="1" as="geometry">
            <mxPoint x="91" y="80" as="sourcePoint" />
            <mxPoint x="111" y="-250" as="targetPoint" />
            <Array as="points">
              <mxPoint x="136" y="-130" />
            </Array>
          </mxGeometry>
        </mxCell>
        <mxCell id="crRijYuh_1POvyGoVFcz-92" value="" style="shape=datastore;html=1;labelPosition=center;verticalLabelPosition=bottom;align=center;verticalAlign=top;fillColor=#99FFFF;" parent="crRijYuh_1POvyGoVFcz-3" vertex="1">
          <mxGeometry x="240" y="15" width="40" height="45" as="geometry" />
        </mxCell>
        <mxCell id="crRijYuh_1POvyGoVFcz-95" value="" style="shape=mxgraph.bpmn.data;labelPosition=center;verticalLabelPosition=bottom;align=center;verticalAlign=top;size=15;html=1;bpmnTransferType=output;isCollection=1;fillColor=#66FFFF;" parent="crRijYuh_1POvyGoVFcz-3" vertex="1">
          <mxGeometry x="181" y="20" width="29" height="40" as="geometry" />
        </mxCell>
        <mxCell id="crRijYuh_1POvyGoVFcz-98" value="" style="edgeStyle=elbowEdgeStyle;fontSize=12;html=1;endArrow=blockThin;endFill=1;rounded=0;exitX=0;exitY=0.5;exitDx=0;exitDy=0;" parent="crRijYuh_1POvyGoVFcz-3" edge="1">
          <mxGeometry width="160" relative="1" as="geometry">
            <mxPoint x="240" y="37.75" as="sourcePoint" />
            <mxPoint x="211" y="37.75" as="targetPoint" />
          </mxGeometry>
        </mxCell>
        <mxCell id="crRijYuh_1POvyGoVFcz-187" value="&lt;font style=&quot;font-size: 9px;&quot;&gt;Согласован&lt;/font&gt;" style="text;html=1;strokeColor=none;fillColor=none;align=center;verticalAlign=middle;whiteSpace=wrap;rounded=0;" parent="crRijYuh_1POvyGoVFcz-3" vertex="1">
          <mxGeometry x="571" y="30" width="40" as="geometry" />
        </mxCell>
        <mxCell id="crRijYuh_1POvyGoVFcz-191" value="&lt;font style=&quot;font-size: 9px;&quot;&gt;Не согласован&lt;br&gt;&lt;/font&gt;" style="text;html=1;strokeColor=none;fillColor=none;align=center;verticalAlign=middle;whiteSpace=wrap;rounded=0;" parent="crRijYuh_1POvyGoVFcz-3" vertex="1">
          <mxGeometry x="481" y="70" width="63" as="geometry" />
        </mxCell>
        <mxCell id="crRijYuh_1POvyGoVFcz-91" value="" style="shape=datastore;html=1;labelPosition=center;verticalLabelPosition=bottom;align=center;verticalAlign=top;fillColor=#66FFFF;" parent="Jbeqt2HLPeFKV9M9eCiw-29" vertex="1">
          <mxGeometry x="240" y="20" width="40" height="45" as="geometry" />
        </mxCell>
        <mxCell id="crRijYuh_1POvyGoVFcz-140" style="edgeStyle=orthogonalEdgeStyle;rounded=0;orthogonalLoop=1;jettySize=auto;html=1;entryX=0;entryY=0.5;entryDx=0;entryDy=0;entryPerimeter=0;" parent="Jbeqt2HLPeFKV9M9eCiw-31" source="crRijYuh_1POvyGoVFcz-16" target="crRijYuh_1POvyGoVFcz-49" edge="1">
          <mxGeometry relative="1" as="geometry" />
        </mxCell>
        <mxCell id="crRijYuh_1POvyGoVFcz-139" style="edgeStyle=orthogonalEdgeStyle;rounded=0;orthogonalLoop=1;jettySize=auto;html=1;entryX=1;entryY=0.5;entryDx=0;entryDy=0;entryPerimeter=0;exitX=0.5;exitY=1;exitDx=0;exitDy=0;exitPerimeter=0;" parent="Jbeqt2HLPeFKV9M9eCiw-31" source="crRijYuh_1POvyGoVFcz-49" target="crRijYuh_1POvyGoVFcz-17" edge="1">
          <mxGeometry relative="1" as="geometry" />
        </mxCell>
        <mxCell id="crRijYuh_1POvyGoVFcz-152" style="edgeStyle=orthogonalEdgeStyle;rounded=0;orthogonalLoop=1;jettySize=auto;html=1;exitX=0;exitY=0.5;exitDx=0;exitDy=0;exitPerimeter=0;entryX=0.997;entryY=0.782;entryDx=0;entryDy=0;entryPerimeter=0;" parent="Jbeqt2HLPeFKV9M9eCiw-31" source="crRijYuh_1POvyGoVFcz-15" target="crRijYuh_1POvyGoVFcz-11" edge="1">
          <mxGeometry relative="1" as="geometry" />
        </mxCell>
        <mxCell id="crRijYuh_1POvyGoVFcz-154" style="edgeStyle=orthogonalEdgeStyle;rounded=0;orthogonalLoop=1;jettySize=auto;html=1;exitX=1;exitY=0.25;exitDx=0;exitDy=0;exitPerimeter=0;entryX=0.015;entryY=0.57;entryDx=0;entryDy=0;entryPerimeter=0;" parent="Jbeqt2HLPeFKV9M9eCiw-31" source="crRijYuh_1POvyGoVFcz-11" target="crRijYuh_1POvyGoVFcz-13" edge="1">
          <mxGeometry relative="1" as="geometry" />
        </mxCell>
        <mxCell id="crRijYuh_1POvyGoVFcz-149" style="edgeStyle=orthogonalEdgeStyle;rounded=0;orthogonalLoop=1;jettySize=auto;html=1;exitX=0.5;exitY=1;exitDx=0;exitDy=0;exitPerimeter=0;entryX=1;entryY=0.5;entryDx=0;entryDy=0;entryPerimeter=0;" parent="Jbeqt2HLPeFKV9M9eCiw-31" source="crRijYuh_1POvyGoVFcz-50" target="crRijYuh_1POvyGoVFcz-15" edge="1">
          <mxGeometry relative="1" as="geometry" />
        </mxCell>
        <mxCell id="crRijYuh_1POvyGoVFcz-194" style="edgeStyle=orthogonalEdgeStyle;rounded=0;orthogonalLoop=1;jettySize=auto;html=1;exitX=1;exitY=0.5;exitDx=0;exitDy=0;exitPerimeter=0;entryX=0;entryY=0.5;entryDx=0;entryDy=0;entryPerimeter=0;" parent="Jbeqt2HLPeFKV9M9eCiw-31" source="crRijYuh_1POvyGoVFcz-13" target="crRijYuh_1POvyGoVFcz-50" edge="1">
          <mxGeometry relative="1" as="geometry" />
        </mxCell>
        <mxCell id="crRijYuh_1POvyGoVFcz-156" style="edgeStyle=orthogonalEdgeStyle;rounded=0;orthogonalLoop=1;jettySize=auto;html=1;exitX=0.5;exitY=1;exitDx=0;exitDy=0;exitPerimeter=0;entryX=0;entryY=0.5;entryDx=0;entryDy=0;entryPerimeter=0;" parent="Jbeqt2HLPeFKV9M9eCiw-30" source="crRijYuh_1POvyGoVFcz-40" target="Jbeqt2HLPeFKV9M9eCiw-48" edge="1">
          <mxGeometry relative="1" as="geometry" />
        </mxCell>
        <mxCell id="crRijYuh_1POvyGoVFcz-179" style="edgeStyle=orthogonalEdgeStyle;rounded=0;orthogonalLoop=1;jettySize=auto;html=1;jumpStyle=arc;" parent="Jbeqt2HLPeFKV9M9eCiw-30" source="crRijYuh_1POvyGoVFcz-54" target="crRijYuh_1POvyGoVFcz-47" edge="1">
          <mxGeometry relative="1" as="geometry">
            <Array as="points">
              <mxPoint x="751" y="-26" />
              <mxPoint x="751" y="111" />
              <mxPoint x="526" y="111" />
            </Array>
          </mxGeometry>
        </mxCell>
        <mxCell id="crRijYuh_1POvyGoVFcz-172" style="edgeStyle=orthogonalEdgeStyle;rounded=0;orthogonalLoop=1;jettySize=auto;html=1;entryX=0;entryY=0.5;entryDx=0;entryDy=0;entryPerimeter=0;exitX=1;exitY=0.5;exitDx=0;exitDy=0;exitPerimeter=0;" parent="Jbeqt2HLPeFKV9M9eCiw-30" source="crRijYuh_1POvyGoVFcz-47" target="crRijYuh_1POvyGoVFcz-167" edge="1">
          <mxGeometry relative="1" as="geometry">
            <Array as="points">
              <mxPoint x="561" y="151" />
              <mxPoint x="561" y="55" />
            </Array>
          </mxGeometry>
        </mxCell>
        <mxCell id="crRijYuh_1POvyGoVFcz-14" value="" style="edgeStyle=elbowEdgeStyle;fontSize=12;html=1;endArrow=blockThin;endFill=1;rounded=0;entryX=0;entryY=0.5;entryDx=0;entryDy=0;entryPerimeter=0;exitX=0.5;exitY=1;exitDx=0;exitDy=0;exitPerimeter=0;" parent="Jbeqt2HLPeFKV9M9eCiw-30" source="crRijYuh_1POvyGoVFcz-40" target="Jbeqt2HLPeFKV9M9eCiw-39" edge="1">
          <mxGeometry width="160" relative="1" as="geometry">
            <mxPoint x="280.5" y="-20" as="sourcePoint" />
            <mxPoint x="315.5" y="206.5" as="targetPoint" />
            <Array as="points">
              <mxPoint x="290.5" y="70" />
              <mxPoint x="295.5" y="46.5" />
            </Array>
          </mxGeometry>
        </mxCell>
        <mxCell id="crRijYuh_1POvyGoVFcz-174" style="edgeStyle=orthogonalEdgeStyle;rounded=0;orthogonalLoop=1;jettySize=auto;html=1;entryX=0;entryY=0.5;entryDx=0;entryDy=0;entryPerimeter=0;exitX=1;exitY=0.5;exitDx=0;exitDy=0;exitPerimeter=0;" parent="Jbeqt2HLPeFKV9M9eCiw-30" source="crRijYuh_1POvyGoVFcz-49" target="crRijYuh_1POvyGoVFcz-167" edge="1">
          <mxGeometry relative="1" as="geometry">
            <mxPoint x="571" y="60" as="targetPoint" />
            <Array as="points">
              <mxPoint x="561" y="261" />
              <mxPoint x="561" y="55" />
            </Array>
          </mxGeometry>
        </mxCell>
        <mxCell id="crRijYuh_1POvyGoVFcz-12" value="" style="endArrow=classic;html=1;rounded=0;entryX=0;entryY=0.5;entryDx=0;entryDy=0;entryPerimeter=0;edgeStyle=orthogonalEdgeStyle;exitX=0.5;exitY=1;exitDx=0;exitDy=0;exitPerimeter=0;" parent="Jbeqt2HLPeFKV9M9eCiw-30" source="crRijYuh_1POvyGoVFcz-40" target="crRijYuh_1POvyGoVFcz-11" edge="1">
          <mxGeometry width="50" height="50" relative="1" as="geometry">
            <mxPoint x="290.5" y="-70" as="sourcePoint" />
            <mxPoint x="635.5" y="10" as="targetPoint" />
            <Array as="points">
              <mxPoint x="291" y="396" />
            </Array>
          </mxGeometry>
        </mxCell>
        <mxCell id="crRijYuh_1POvyGoVFcz-175" style="edgeStyle=orthogonalEdgeStyle;rounded=0;orthogonalLoop=1;jettySize=auto;html=1;entryX=0;entryY=0.5;entryDx=0;entryDy=0;entryPerimeter=0;exitX=1;exitY=0.5;exitDx=0;exitDy=0;exitPerimeter=0;" parent="Jbeqt2HLPeFKV9M9eCiw-30" source="crRijYuh_1POvyGoVFcz-50" target="crRijYuh_1POvyGoVFcz-167" edge="1">
          <mxGeometry relative="1" as="geometry">
            <Array as="points">
              <mxPoint x="561" y="371" />
              <mxPoint x="561" y="55" />
            </Array>
          </mxGeometry>
        </mxCell>
        <mxCell id="Jbeqt2HLPeFKV9M9eCiw-14" value="" style="fontSize=12;html=1;endFill=0;startFill=0;endSize=6;startSize=6;dashed=1;dashPattern=1 4;endArrow=none;startArrow=none;rounded=0;entryX=0.056;entryY=0.633;entryDx=0;entryDy=0;entryPerimeter=0;" parent="Jbeqt2HLPeFKV9M9eCiw-30" target="Jbeqt2HLPeFKV9M9eCiw-15" edge="1">
          <mxGeometry width="160" relative="1" as="geometry">
            <mxPoint x="70" y="-270" as="sourcePoint" />
            <mxPoint x="111" y="-278.68" as="targetPoint" />
          </mxGeometry>
        </mxCell>
        <mxCell id="crRijYuh_1POvyGoVFcz-96" value="" style="edgeStyle=elbowEdgeStyle;fontSize=12;html=1;endArrow=blockThin;endFill=1;rounded=0;exitX=0;exitY=0.5;exitDx=0;exitDy=0;" parent="1" source="crRijYuh_1POvyGoVFcz-91" edge="1">
          <mxGeometry width="160" relative="1" as="geometry">
            <mxPoint x="-259" y="694" as="sourcePoint" />
            <mxPoint x="221" y="642" as="targetPoint" />
          </mxGeometry>
        </mxCell>
        <mxCell id="crRijYuh_1POvyGoVFcz-101" value="" style="edgeStyle=elbowEdgeStyle;fontSize=12;html=1;endArrow=blockThin;endFill=1;rounded=0;exitX=0;exitY=0.5;exitDx=0;exitDy=0;" parent="1" source="crRijYuh_1POvyGoVFcz-100" edge="1">
          <mxGeometry width="160" relative="1" as="geometry">
            <mxPoint x="-269" y="574" as="sourcePoint" />
            <mxPoint x="211" y="522" as="targetPoint" />
          </mxGeometry>
        </mxCell>
        <mxCell id="crRijYuh_1POvyGoVFcz-181" style="edgeStyle=orthogonalEdgeStyle;rounded=0;orthogonalLoop=1;jettySize=auto;html=1;entryX=0.5;entryY=0;entryDx=0;entryDy=0;entryPerimeter=0;jumpStyle=arc;" parent="1" target="crRijYuh_1POvyGoVFcz-49" edge="1">
          <mxGeometry relative="1" as="geometry">
            <mxPoint x="761" y="480" as="sourcePoint" />
            <Array as="points">
              <mxPoint x="761" y="594" />
              <mxPoint x="536" y="594" />
            </Array>
          </mxGeometry>
        </mxCell>
        <mxCell id="crRijYuh_1POvyGoVFcz-193" style="edgeStyle=orthogonalEdgeStyle;rounded=0;orthogonalLoop=1;jettySize=auto;html=1;jumpStyle=arc;" parent="1" target="crRijYuh_1POvyGoVFcz-50" edge="1">
          <mxGeometry relative="1" as="geometry">
            <mxPoint x="761" y="594" as="sourcePoint" />
            <Array as="points">
              <mxPoint x="761" y="704" />
              <mxPoint x="536" y="704" />
            </Array>
          </mxGeometry>
        </mxCell>
        <mxCell id="Jbeqt2HLPeFKV9M9eCiw-6" value="A.1. Планирование" style="text;html=1;strokeColor=#000000;fillColor=none;align=center;verticalAlign=middle;whiteSpace=wrap;rounded=0;fontStyle=1;fontSize=9;" parent="1" vertex="1">
          <mxGeometry x="10" y="44" width="1140" height="30" as="geometry" />
        </mxCell>
        <mxCell id="Jbeqt2HLPeFKV9M9eCiw-11" value="" style="dashed=1;dashPattern=8 4;endArrow=blockThin;endFill=1;startArrow=oval;startFill=0;endSize=6;startSize=4;html=1;rounded=0;exitX=0.057;exitY=1.005;exitDx=0;exitDy=0;exitPerimeter=0;" parent="1" source="Jbeqt2HLPeFKV9M9eCiw-6" target="crRijYuh_1POvyGoVFcz-39" edge="1">
          <mxGeometry width="160" relative="1" as="geometry">
            <mxPoint x="70.00000000000009" y="48.99999999999994" as="sourcePoint" />
            <mxPoint x="71" y="299" as="targetPoint" />
          </mxGeometry>
        </mxCell>
        <mxCell id="Jbeqt2HLPeFKV9M9eCiw-16" value="&lt;p style=&quot;line-height: 60%;&quot;&gt;&lt;font style=&quot;font-size: 9px;&quot;&gt;A1.1.1. Годовой график бюджета&lt;/font&gt;&lt;/p&gt;" style="text;html=1;strokeColor=none;fillColor=none;align=center;verticalAlign=middle;whiteSpace=wrap;rounded=0;" parent="1" vertex="1">
          <mxGeometry x="71.25" y="105.32" width="80" height="40" as="geometry" />
        </mxCell>
        <mxCell id="Jbeqt2HLPeFKV9M9eCiw-15" value="" style="shape=mxgraph.bpmn.data;labelPosition=center;verticalLabelPosition=bottom;align=center;verticalAlign=top;size=15;html=1;" parent="1" vertex="1">
          <mxGeometry x="100" y="80" width="21.55" height="30" as="geometry" />
        </mxCell>
        <mxCell id="crRijYuh_1POvyGoVFcz-200" value="&lt;p style=&quot;line-height: 60%;&quot;&gt;&lt;font style=&quot;font-size: 9px;&quot;&gt;A1.1.3. Исполнение бюджета&lt;br&gt;&lt;/font&gt;&lt;/p&gt;" style="text;html=1;strokeColor=none;fillColor=none;align=center;verticalAlign=middle;whiteSpace=wrap;rounded=0;" parent="1" vertex="1">
          <mxGeometry x="1040" y="105.32" width="80" height="40" as="geometry" />
        </mxCell>
        <mxCell id="crRijYuh_1POvyGoVFcz-201" value="" style="shape=mxgraph.bpmn.data;labelPosition=center;verticalLabelPosition=bottom;align=center;verticalAlign=top;size=15;html=1;" parent="1" vertex="1">
          <mxGeometry x="1068.75" y="80" width="21.55" height="30" as="geometry" />
        </mxCell>
        <mxCell id="crRijYuh_1POvyGoVFcz-202" value="" style="fontSize=12;html=1;endFill=0;startFill=0;endSize=6;startSize=6;dashed=1;dashPattern=1 4;endArrow=none;startArrow=none;rounded=0;entryX=0.056;entryY=0.633;entryDx=0;entryDy=0;entryPerimeter=0;" parent="1" edge="1">
          <mxGeometry width="160" relative="1" as="geometry">
            <mxPoint x="1090" y="99.00000000000006" as="sourcePoint" />
            <mxPoint x="1111.2068" y="98.99000000000001" as="targetPoint" />
          </mxGeometry>
        </mxCell>
        <mxCell id="crRijYuh_1POvyGoVFcz-116" value="" style="dashed=1;dashPattern=8 4;endArrow=blockThin;endFill=1;startArrow=oval;startFill=0;endSize=6;startSize=4;html=1;rounded=0;entryX=0.97;entryY=1.012;entryDx=0;entryDy=0;entryPerimeter=0;" parent="1" source="crRijYuh_1POvyGoVFcz-55" target="Jbeqt2HLPeFKV9M9eCiw-6" edge="1">
          <mxGeometry width="160" relative="1" as="geometry">
            <mxPoint x="1121" y="89" as="sourcePoint" />
            <mxPoint x="1116" y="49" as="targetPoint" />
          </mxGeometry>
        </mxCell>
        <mxCell id="crRijYuh_1POvyGoVFcz-203" value="&lt;h1&gt;Морской терминал. Бизнес-процесс А-1.3. Операционный бюджет&lt;br&gt;&lt;/h1&gt;" style="text;html=1;strokeColor=none;fillColor=none;spacing=5;spacingTop=-20;whiteSpace=wrap;overflow=hidden;rounded=0;align=center;" parent="1" vertex="1">
          <mxGeometry x="10" y="10" width="1140" height="39" as="geometry" />
        </mxCell>
      </root>
    </mxGraphModel>
  </diagram>
  <diagram id="pswMlQXyHnlcvSfJ1SyQ" name="UML">
    <mxGraphModel dx="10847" dy="7844" grid="1" gridSize="10" guides="1" tooltips="1" connect="1" arrows="1" fold="1" page="1" pageScale="1" pageWidth="827" pageHeight="1169" math="0" shadow="0">
      <root>
        <mxCell id="0" />
        <mxCell id="1" parent="0" />
        <mxCell id="kAQspPtYipY238db-bec-2" value="&lt;h1&gt;Морской терминал. UML&lt;/h1&gt;&lt;h1 style=&quot;line-height: 0%;&quot;&gt;Бизнес-процесс А-1.3. Операционный бюджет&lt;br&gt;&lt;/h1&gt;" style="text;html=1;strokeColor=none;fillColor=none;spacing=5;spacingTop=-20;whiteSpace=wrap;overflow=hidden;rounded=0;align=center;" parent="1" vertex="1">
          <mxGeometry x="-9080" y="-7000" width="780" height="70" as="geometry" />
        </mxCell>
        <mxCell id="c-MdhXokt2XAWQgn-_Xj-2" value="Директор по экономике и финансам" style="text;html=1;strokeColor=none;fillColor=none;align=center;verticalAlign=middle;whiteSpace=wrap;rounded=0;fontStyle=1" parent="1" vertex="1">
          <mxGeometry x="-8950" y="-6930" width="130" height="90" as="geometry" />
        </mxCell>
        <mxCell id="c-MdhXokt2XAWQgn-_Xj-3" value="Экономист, бухгалтер" style="text;html=1;strokeColor=none;fillColor=none;align=center;verticalAlign=middle;whiteSpace=wrap;rounded=0;fontStyle=1" parent="1" vertex="1">
          <mxGeometry x="-8820" y="-6930" width="130" height="90" as="geometry" />
        </mxCell>
        <mxCell id="c-MdhXokt2XAWQgn-_Xj-4" value="Директор по логистике" style="text;html=1;strokeColor=none;fillColor=none;align=center;verticalAlign=middle;whiteSpace=wrap;rounded=0;fontStyle=1" parent="1" vertex="1">
          <mxGeometry x="-8690" y="-6930" width="130" height="90" as="geometry" />
        </mxCell>
        <mxCell id="c-MdhXokt2XAWQgn-_Xj-5" value="Директор по экслпуатации" style="text;html=1;strokeColor=none;fillColor=none;align=center;verticalAlign=middle;whiteSpace=wrap;rounded=0;fontStyle=1" parent="1" vertex="1">
          <mxGeometry x="-8560" y="-6930" width="130" height="90" as="geometry" />
        </mxCell>
        <mxCell id="c-MdhXokt2XAWQgn-_Xj-6" value="&lt;div&gt;Главный инженер,&lt;br&gt;&lt;/div&gt;&lt;div&gt;Директора по остальным непроизводственным направлениям&lt;/div&gt;&lt;div&gt;(персонал и т..д.)&lt;br&gt;&lt;/div&gt;" style="text;html=1;strokeColor=none;fillColor=none;align=center;verticalAlign=middle;whiteSpace=wrap;rounded=0;fontStyle=1" parent="1" vertex="1">
          <mxGeometry x="-8430" y="-6930" width="130" height="90" as="geometry" />
        </mxCell>
        <mxCell id="c-MdhXokt2XAWQgn-_Xj-7" value="Генеральный директор" style="text;html=1;strokeColor=none;fillColor=none;align=center;verticalAlign=middle;whiteSpace=wrap;rounded=0;fontStyle=1" parent="1" vertex="1">
          <mxGeometry x="-9080" y="-6930" width="130" height="80" as="geometry" />
        </mxCell>
        <mxCell id="c-MdhXokt2XAWQgn-_Xj-8" value="" style="endArrow=none;html=1;rounded=0;dashed=1;" parent="1" edge="1">
          <mxGeometry width="50" height="50" relative="1" as="geometry">
            <mxPoint x="-8950" y="-5860" as="sourcePoint" />
            <mxPoint x="-8950" y="-6930" as="targetPoint" />
          </mxGeometry>
        </mxCell>
        <mxCell id="c-MdhXokt2XAWQgn-_Xj-9" value="" style="endArrow=none;html=1;rounded=0;dashed=1;" parent="1" edge="1">
          <mxGeometry width="50" height="50" relative="1" as="geometry">
            <mxPoint x="-8820" y="-5860" as="sourcePoint" />
            <mxPoint x="-8820" y="-6930" as="targetPoint" />
          </mxGeometry>
        </mxCell>
        <mxCell id="c-MdhXokt2XAWQgn-_Xj-10" value="" style="endArrow=none;html=1;rounded=0;dashed=1;" parent="1" edge="1">
          <mxGeometry width="50" height="50" relative="1" as="geometry">
            <mxPoint x="-8690.71" y="-5860" as="sourcePoint" />
            <mxPoint x="-8690.71" y="-6930" as="targetPoint" />
          </mxGeometry>
        </mxCell>
        <mxCell id="c-MdhXokt2XAWQgn-_Xj-11" value="" style="endArrow=none;html=1;rounded=0;dashed=1;" parent="1" edge="1">
          <mxGeometry width="50" height="50" relative="1" as="geometry">
            <mxPoint x="-8560" y="-5860" as="sourcePoint" />
            <mxPoint x="-8560" y="-6930" as="targetPoint" />
          </mxGeometry>
        </mxCell>
        <mxCell id="c-MdhXokt2XAWQgn-_Xj-12" value="" style="endArrow=none;html=1;rounded=0;dashed=1;" parent="1" edge="1">
          <mxGeometry width="50" height="50" relative="1" as="geometry">
            <mxPoint x="-8430" y="-5860" as="sourcePoint" />
            <mxPoint x="-8430" y="-6930" as="targetPoint" />
          </mxGeometry>
        </mxCell>
        <mxCell id="c-MdhXokt2XAWQgn-_Xj-13" value="" style="endArrow=none;html=1;rounded=0;" parent="1" edge="1">
          <mxGeometry width="50" height="50" relative="1" as="geometry">
            <mxPoint x="-9080" y="-5860" as="sourcePoint" />
            <mxPoint x="-9080" y="-6930" as="targetPoint" />
          </mxGeometry>
        </mxCell>
        <mxCell id="c-MdhXokt2XAWQgn-_Xj-14" value="" style="endArrow=none;html=1;rounded=0;" parent="1" edge="1">
          <mxGeometry width="50" height="50" relative="1" as="geometry">
            <mxPoint x="-8300" y="-5860" as="sourcePoint" />
            <mxPoint x="-8300" y="-6930" as="targetPoint" />
          </mxGeometry>
        </mxCell>
        <mxCell id="OgyrcFE_uKvasq7Oo_39-42" style="edgeStyle=orthogonalEdgeStyle;rounded=0;orthogonalLoop=1;jettySize=auto;html=1;exitX=0.5;exitY=1;exitDx=0;exitDy=0;entryX=0.5;entryY=0;entryDx=0;entryDy=0;" edge="1" parent="1" source="c-MdhXokt2XAWQgn-_Xj-15" target="z8eO4Ju9QUaboxT5xBTl-6">
          <mxGeometry relative="1" as="geometry" />
        </mxCell>
        <mxCell id="c-MdhXokt2XAWQgn-_Xj-15" value="" style="ellipse;fillColor=strokeColor;html=1;" parent="1" vertex="1">
          <mxGeometry x="-8900" y="-6830" width="30" height="30" as="geometry" />
        </mxCell>
        <mxCell id="c-MdhXokt2XAWQgn-_Xj-16" value="&lt;div&gt;Формирование отчёта о доходах-расходах&lt;/div&gt;&lt;div&gt;(факт)&lt;br&gt;&lt;/div&gt;" style="html=1;align=center;verticalAlign=middle;rounded=1;absoluteArcSize=1;arcSize=10;dashed=0;whiteSpace=wrap;fontSize=9;" parent="1" vertex="1">
          <mxGeometry x="-8810" y="-6660" width="110" height="40" as="geometry" />
        </mxCell>
        <mxCell id="OgyrcFE_uKvasq7Oo_39-4" style="edgeStyle=orthogonalEdgeStyle;rounded=0;orthogonalLoop=1;jettySize=auto;html=1;exitX=0.5;exitY=1;exitDx=0;exitDy=0;entryX=0.5;entryY=0;entryDx=0;entryDy=0;" edge="1" parent="1" source="z8eO4Ju9QUaboxT5xBTl-1" target="c-MdhXokt2XAWQgn-_Xj-16">
          <mxGeometry relative="1" as="geometry">
            <mxPoint x="-8625" y="-6690" as="sourcePoint" />
            <mxPoint x="-8755" y="-6650" as="targetPoint" />
            <Array as="points">
              <mxPoint x="-8625" y="-6680" />
              <mxPoint x="-8755" y="-6680" />
            </Array>
          </mxGeometry>
        </mxCell>
        <mxCell id="z8eO4Ju9QUaboxT5xBTl-1" value="&lt;div&gt;Формирование отчёта об исполнении контрактов&lt;/div&gt;&lt;div&gt;(завоза-вывоза)&lt;br&gt; &lt;/div&gt;" style="html=1;align=center;verticalAlign=middle;rounded=1;absoluteArcSize=1;arcSize=10;dashed=0;whiteSpace=wrap;fontSize=9;" parent="1" vertex="1">
          <mxGeometry x="-8680" y="-6790" width="110" height="90" as="geometry" />
        </mxCell>
        <mxCell id="OgyrcFE_uKvasq7Oo_39-5" style="edgeStyle=orthogonalEdgeStyle;rounded=0;orthogonalLoop=1;jettySize=auto;html=1;exitX=0.5;exitY=1;exitDx=0;exitDy=0;entryX=0.5;entryY=0;entryDx=0;entryDy=0;" edge="1" parent="1" source="z8eO4Ju9QUaboxT5xBTl-2" target="c-MdhXokt2XAWQgn-_Xj-16">
          <mxGeometry relative="1" as="geometry">
            <mxPoint x="-8495" y="-6690" as="sourcePoint" />
            <mxPoint x="-8755" y="-6650" as="targetPoint" />
            <Array as="points">
              <mxPoint x="-8495" y="-6680" />
              <mxPoint x="-8755" y="-6680" />
            </Array>
          </mxGeometry>
        </mxCell>
        <mxCell id="z8eO4Ju9QUaboxT5xBTl-2" value="Подача сведений о перевалке" style="html=1;align=center;verticalAlign=middle;rounded=1;absoluteArcSize=1;arcSize=10;dashed=0;whiteSpace=wrap;fontSize=9;" parent="1" vertex="1">
          <mxGeometry x="-8550" y="-6790" width="110" height="90" as="geometry" />
        </mxCell>
        <mxCell id="z8eO4Ju9QUaboxT5xBTl-3" value="&lt;div&gt;Подача сведений:&lt;/div&gt;&lt;div&gt;- ремонты, ввод-вывод оборудования;&lt;br&gt;&lt;/div&gt;&lt;div&gt;- выходе персонала;&lt;/div&gt;- исполнение по прочим статьям бюджета" style="html=1;align=center;verticalAlign=middle;rounded=1;absoluteArcSize=1;arcSize=10;dashed=0;whiteSpace=wrap;fontSize=9;" parent="1" vertex="1">
          <mxGeometry x="-8420" y="-6790" width="110" height="90" as="geometry" />
        </mxCell>
        <mxCell id="OgyrcFE_uKvasq7Oo_39-7" style="edgeStyle=orthogonalEdgeStyle;rounded=0;orthogonalLoop=1;jettySize=auto;html=1;exitX=0.5;exitY=1;exitDx=0;exitDy=0;entryX=0.5;entryY=0;entryDx=0;entryDy=0;" edge="1" parent="1" source="z8eO4Ju9QUaboxT5xBTl-3" target="c-MdhXokt2XAWQgn-_Xj-16">
          <mxGeometry relative="1" as="geometry">
            <mxPoint x="-8365" y="-6690" as="sourcePoint" />
            <mxPoint x="-8755" y="-6650" as="targetPoint" />
            <Array as="points">
              <mxPoint x="-8365" y="-6680" />
              <mxPoint x="-8755" y="-6680" />
            </Array>
          </mxGeometry>
        </mxCell>
        <mxCell id="OgyrcFE_uKvasq7Oo_39-68" style="edgeStyle=orthogonalEdgeStyle;rounded=0;orthogonalLoop=1;jettySize=auto;html=1;entryX=0.498;entryY=0.04;entryDx=0;entryDy=0;entryPerimeter=0;" edge="1" parent="1" source="z8eO4Ju9QUaboxT5xBTl-6" target="OgyrcFE_uKvasq7Oo_39-56">
          <mxGeometry relative="1" as="geometry" />
        </mxCell>
        <mxCell id="OgyrcFE_uKvasq7Oo_39-70" style="edgeStyle=orthogonalEdgeStyle;rounded=0;orthogonalLoop=1;jettySize=auto;html=1;exitX=0.5;exitY=1;exitDx=0;exitDy=0;entryX=0;entryY=0.5;entryDx=0;entryDy=0;" edge="1" parent="1" source="z8eO4Ju9QUaboxT5xBTl-6" target="c-MdhXokt2XAWQgn-_Xj-16">
          <mxGeometry relative="1" as="geometry" />
        </mxCell>
        <mxCell id="z8eO4Ju9QUaboxT5xBTl-6" value="&lt;div&gt;Формироване графика&lt;/div&gt;&lt;div&gt;готового бюджета&lt;/div&gt;" style="html=1;align=center;verticalAlign=middle;rounded=1;absoluteArcSize=1;arcSize=10;dashed=0;whiteSpace=wrap;fontSize=9;" parent="1" vertex="1">
          <mxGeometry x="-8940" y="-6780" width="110" height="90" as="geometry" />
        </mxCell>
        <mxCell id="OgyrcFE_uKvasq7Oo_39-13" style="edgeStyle=orthogonalEdgeStyle;rounded=0;orthogonalLoop=1;jettySize=auto;html=1;entryX=0.5;entryY=0;entryDx=0;entryDy=0;" edge="1" parent="1" source="c-MdhXokt2XAWQgn-_Xj-16" target="c-MdhXokt2XAWQgn-_Xj-16">
          <mxGeometry relative="1" as="geometry">
            <Array as="points">
              <mxPoint x="-8720" y="-6640" />
              <mxPoint x="-8720" y="-6660" />
            </Array>
          </mxGeometry>
        </mxCell>
        <mxCell id="OgyrcFE_uKvasq7Oo_39-79" style="edgeStyle=orthogonalEdgeStyle;rounded=0;orthogonalLoop=1;jettySize=auto;html=1;entryX=0.5;entryY=0;entryDx=0;entryDy=0;" edge="1" parent="1" source="OgyrcFE_uKvasq7Oo_39-17" target="OgyrcFE_uKvasq7Oo_39-54">
          <mxGeometry relative="1" as="geometry">
            <Array as="points">
              <mxPoint x="-8755" y="-6370" />
              <mxPoint x="-8885" y="-6370" />
            </Array>
          </mxGeometry>
        </mxCell>
        <mxCell id="OgyrcFE_uKvasq7Oo_39-17" value="&lt;div&gt;Формирование &lt;br&gt;&lt;/div&gt;проекта плана расходов" style="html=1;align=center;verticalAlign=middle;rounded=1;absoluteArcSize=1;arcSize=10;dashed=0;whiteSpace=wrap;fontSize=9;" vertex="1" parent="1">
          <mxGeometry x="-8810" y="-6430" width="110" height="40" as="geometry" />
        </mxCell>
        <mxCell id="OgyrcFE_uKvasq7Oo_39-18" style="edgeStyle=orthogonalEdgeStyle;rounded=0;orthogonalLoop=1;jettySize=auto;html=1;exitX=0.5;exitY=1;exitDx=0;exitDy=0;entryX=0.5;entryY=0;entryDx=0;entryDy=0;" edge="1" source="OgyrcFE_uKvasq7Oo_39-19" target="OgyrcFE_uKvasq7Oo_39-17" parent="1">
          <mxGeometry relative="1" as="geometry">
            <mxPoint x="-8755" y="-6420" as="targetPoint" />
            <Array as="points">
              <mxPoint x="-8625" y="-6450" />
              <mxPoint x="-8755" y="-6450" />
            </Array>
          </mxGeometry>
        </mxCell>
        <mxCell id="OgyrcFE_uKvasq7Oo_39-19" value="&lt;div&gt;Формирование&lt;br&gt;&lt;/div&gt;&lt;div&gt;плана завоза-вывоза&lt;/div&gt;" style="html=1;align=center;verticalAlign=middle;rounded=1;absoluteArcSize=1;arcSize=10;dashed=0;whiteSpace=wrap;fontSize=9;" vertex="1" parent="1">
          <mxGeometry x="-8680" y="-6550" width="110" height="90" as="geometry" />
        </mxCell>
        <mxCell id="OgyrcFE_uKvasq7Oo_39-20" style="edgeStyle=orthogonalEdgeStyle;rounded=0;orthogonalLoop=1;jettySize=auto;html=1;exitX=0.5;exitY=1;exitDx=0;exitDy=0;entryX=0.5;entryY=0;entryDx=0;entryDy=0;" edge="1" source="OgyrcFE_uKvasq7Oo_39-21" target="OgyrcFE_uKvasq7Oo_39-17" parent="1">
          <mxGeometry relative="1" as="geometry">
            <mxPoint x="-8755" y="-6420" as="targetPoint" />
            <Array as="points">
              <mxPoint x="-8495" y="-6450" />
              <mxPoint x="-8755" y="-6450" />
            </Array>
          </mxGeometry>
        </mxCell>
        <mxCell id="OgyrcFE_uKvasq7Oo_39-21" value="&lt;div&gt;Формирование&lt;br&gt;&lt;/div&gt;&lt;div&gt;плана перевалки&lt;/div&gt;" style="html=1;align=center;verticalAlign=middle;rounded=1;absoluteArcSize=1;arcSize=10;dashed=0;whiteSpace=wrap;fontSize=9;" vertex="1" parent="1">
          <mxGeometry x="-8550" y="-6550" width="110" height="90" as="geometry" />
        </mxCell>
        <mxCell id="OgyrcFE_uKvasq7Oo_39-22" value="&lt;div&gt;Формирование планов непроизводственных подразделений:&lt;/div&gt;&lt;div&gt;- ремонты, строительство;&lt;/div&gt;&lt;div&gt;- выход персонала;&lt;/div&gt;&lt;div&gt;- прочие&lt;br&gt;&lt;/div&gt;" style="html=1;align=center;verticalAlign=middle;rounded=1;absoluteArcSize=1;arcSize=10;dashed=0;whiteSpace=wrap;fontSize=9;" vertex="1" parent="1">
          <mxGeometry x="-8420" y="-6550" width="110" height="90" as="geometry" />
        </mxCell>
        <mxCell id="OgyrcFE_uKvasq7Oo_39-23" style="edgeStyle=orthogonalEdgeStyle;rounded=0;orthogonalLoop=1;jettySize=auto;html=1;exitX=0.5;exitY=1;exitDx=0;exitDy=0;entryX=0.5;entryY=0;entryDx=0;entryDy=0;" edge="1" source="OgyrcFE_uKvasq7Oo_39-22" target="OgyrcFE_uKvasq7Oo_39-17" parent="1">
          <mxGeometry relative="1" as="geometry">
            <mxPoint x="-8365" y="-6450" as="sourcePoint" />
            <mxPoint x="-8755" y="-6420" as="targetPoint" />
            <Array as="points">
              <mxPoint x="-8365" y="-6450" />
              <mxPoint x="-8755" y="-6450" />
            </Array>
          </mxGeometry>
        </mxCell>
        <mxCell id="OgyrcFE_uKvasq7Oo_39-24" style="edgeStyle=orthogonalEdgeStyle;rounded=0;orthogonalLoop=1;jettySize=auto;html=1;entryX=0.5;entryY=0;entryDx=0;entryDy=0;" edge="1" source="OgyrcFE_uKvasq7Oo_39-17" target="OgyrcFE_uKvasq7Oo_39-17" parent="1">
          <mxGeometry relative="1" as="geometry">
            <Array as="points">
              <mxPoint x="-8720" y="-6410" />
              <mxPoint x="-8720" y="-6430" />
            </Array>
          </mxGeometry>
        </mxCell>
        <mxCell id="OgyrcFE_uKvasq7Oo_39-34" style="edgeStyle=orthogonalEdgeStyle;rounded=0;orthogonalLoop=1;jettySize=auto;html=1;exitX=0.5;exitY=1;exitDx=0;exitDy=0;entryX=0.5;entryY=0;entryDx=0;entryDy=0;" edge="1" source="OgyrcFE_uKvasq7Oo_39-38" target="OgyrcFE_uKvasq7Oo_39-41" parent="1">
          <mxGeometry relative="1" as="geometry">
            <mxPoint x="-8755" y="-6230" as="targetPoint" />
            <Array as="points">
              <mxPoint x="-8625" y="-6260" />
              <mxPoint x="-8755" y="-6260" />
            </Array>
          </mxGeometry>
        </mxCell>
        <mxCell id="OgyrcFE_uKvasq7Oo_39-35" style="edgeStyle=orthogonalEdgeStyle;rounded=0;orthogonalLoop=1;jettySize=auto;html=1;exitX=0.5;exitY=1;exitDx=0;exitDy=0;entryX=0.5;entryY=0;entryDx=0;entryDy=0;" edge="1" source="OgyrcFE_uKvasq7Oo_39-39" target="OgyrcFE_uKvasq7Oo_39-41" parent="1">
          <mxGeometry relative="1" as="geometry">
            <mxPoint x="-8755" y="-6230" as="targetPoint" />
            <Array as="points">
              <mxPoint x="-8495" y="-6260" />
              <mxPoint x="-8755" y="-6260" />
            </Array>
          </mxGeometry>
        </mxCell>
        <mxCell id="OgyrcFE_uKvasq7Oo_39-36" style="edgeStyle=orthogonalEdgeStyle;rounded=0;orthogonalLoop=1;jettySize=auto;html=1;exitX=0.5;exitY=1;exitDx=0;exitDy=0;entryX=0.5;entryY=0;entryDx=0;entryDy=0;" edge="1" source="OgyrcFE_uKvasq7Oo_39-40" target="OgyrcFE_uKvasq7Oo_39-41" parent="1">
          <mxGeometry relative="1" as="geometry">
            <mxPoint x="-8365" y="-6260" as="sourcePoint" />
            <mxPoint x="-8755" y="-6230" as="targetPoint" />
            <Array as="points">
              <mxPoint x="-8365" y="-6260" />
              <mxPoint x="-8755" y="-6260" />
            </Array>
          </mxGeometry>
        </mxCell>
        <mxCell id="OgyrcFE_uKvasq7Oo_39-37" style="edgeStyle=orthogonalEdgeStyle;rounded=0;orthogonalLoop=1;jettySize=auto;html=1;entryX=0.5;entryY=0;entryDx=0;entryDy=0;" edge="1" source="OgyrcFE_uKvasq7Oo_39-41" target="OgyrcFE_uKvasq7Oo_39-41" parent="1">
          <mxGeometry relative="1" as="geometry">
            <Array as="points">
              <mxPoint x="-8720" y="-6230" />
              <mxPoint x="-8720" y="-6250" />
            </Array>
          </mxGeometry>
        </mxCell>
        <mxCell id="OgyrcFE_uKvasq7Oo_39-38" value="Заявки на административные расходы в следующий месяц" style="html=1;align=center;verticalAlign=middle;rounded=1;absoluteArcSize=1;arcSize=10;dashed=0;whiteSpace=wrap;fontSize=9;" vertex="1" parent="1">
          <mxGeometry x="-8680" y="-6360" width="110" height="90" as="geometry" />
        </mxCell>
        <mxCell id="OgyrcFE_uKvasq7Oo_39-39" value="Заявки на административные расходы в следующий месяц" style="html=1;align=center;verticalAlign=middle;rounded=1;absoluteArcSize=1;arcSize=10;dashed=0;whiteSpace=wrap;fontSize=9;" vertex="1" parent="1">
          <mxGeometry x="-8550" y="-6360" width="110" height="90" as="geometry" />
        </mxCell>
        <mxCell id="OgyrcFE_uKvasq7Oo_39-40" value="Заявки на прямые и косвенные расходы нав следующий месяц" style="html=1;align=center;verticalAlign=middle;rounded=1;absoluteArcSize=1;arcSize=10;dashed=0;whiteSpace=wrap;fontSize=9;" vertex="1" parent="1">
          <mxGeometry x="-8420" y="-6360" width="110" height="90" as="geometry" />
        </mxCell>
        <mxCell id="OgyrcFE_uKvasq7Oo_39-61" style="edgeStyle=orthogonalEdgeStyle;rounded=0;orthogonalLoop=1;jettySize=auto;html=1;entryX=0.5;entryY=0;entryDx=0;entryDy=0;exitX=0.5;exitY=1;exitDx=0;exitDy=0;" edge="1" parent="1" source="OgyrcFE_uKvasq7Oo_39-41" target="OgyrcFE_uKvasq7Oo_39-54">
          <mxGeometry relative="1" as="geometry">
            <Array as="points">
              <mxPoint x="-8755" y="-6200" />
              <mxPoint x="-8885" y="-6200" />
            </Array>
          </mxGeometry>
        </mxCell>
        <mxCell id="OgyrcFE_uKvasq7Oo_39-41" value="&lt;div&gt;Формирование &lt;br&gt;&lt;/div&gt;проекта плана доходов" style="html=1;align=center;verticalAlign=middle;rounded=1;absoluteArcSize=1;arcSize=10;dashed=0;whiteSpace=wrap;fontSize=9;" vertex="1" parent="1">
          <mxGeometry x="-8810" y="-6250" width="110" height="40" as="geometry" />
        </mxCell>
        <mxCell id="OgyrcFE_uKvasq7Oo_39-60" style="rounded=0;orthogonalLoop=1;jettySize=auto;html=1;entryX=1.014;entryY=0.492;entryDx=0;entryDy=0;entryPerimeter=0;" edge="1" parent="1" source="OgyrcFE_uKvasq7Oo_39-54">
          <mxGeometry relative="1" as="geometry">
            <mxPoint x="-8989.3" y="-6160.24" as="targetPoint" />
          </mxGeometry>
        </mxCell>
        <mxCell id="OgyrcFE_uKvasq7Oo_39-54" value="&lt;div&gt;Формирование &lt;br&gt;&lt;/div&gt;отчёта об исполнении бюджета" style="html=1;align=center;verticalAlign=middle;rounded=1;absoluteArcSize=1;arcSize=10;dashed=0;whiteSpace=wrap;fontSize=9;" vertex="1" parent="1">
          <mxGeometry x="-8940" y="-6180" width="110" height="40" as="geometry" />
        </mxCell>
        <mxCell id="OgyrcFE_uKvasq7Oo_39-64" style="edgeStyle=orthogonalEdgeStyle;rounded=0;orthogonalLoop=1;jettySize=auto;html=1;entryX=0.5;entryY=0;entryDx=0;entryDy=0;exitX=0.502;exitY=0.984;exitDx=0;exitDy=0;exitPerimeter=0;" edge="1" parent="1" source="OgyrcFE_uKvasq7Oo_39-56" target="OgyrcFE_uKvasq7Oo_39-19">
          <mxGeometry relative="1" as="geometry">
            <Array as="points">
              <mxPoint x="-8885" y="-6570" />
              <mxPoint x="-8625" y="-6570" />
            </Array>
          </mxGeometry>
        </mxCell>
        <mxCell id="OgyrcFE_uKvasq7Oo_39-73" style="edgeStyle=orthogonalEdgeStyle;rounded=0;orthogonalLoop=1;jettySize=auto;html=1;entryX=0.5;entryY=0;entryDx=0;entryDy=0;exitX=0.502;exitY=0.959;exitDx=0;exitDy=0;exitPerimeter=0;" edge="1" parent="1" source="OgyrcFE_uKvasq7Oo_39-56" target="OgyrcFE_uKvasq7Oo_39-21">
          <mxGeometry relative="1" as="geometry">
            <Array as="points">
              <mxPoint x="-8885" y="-6570" />
              <mxPoint x="-8495" y="-6570" />
            </Array>
          </mxGeometry>
        </mxCell>
        <mxCell id="OgyrcFE_uKvasq7Oo_39-74" style="edgeStyle=orthogonalEdgeStyle;rounded=0;orthogonalLoop=1;jettySize=auto;html=1;entryX=0.573;entryY=0.011;entryDx=0;entryDy=0;entryPerimeter=0;" edge="1" parent="1" target="OgyrcFE_uKvasq7Oo_39-22">
          <mxGeometry relative="1" as="geometry">
            <mxPoint x="-8885" y="-6580" as="sourcePoint" />
            <Array as="points">
              <mxPoint x="-8885" y="-6570" />
              <mxPoint x="-8357" y="-6570" />
            </Array>
          </mxGeometry>
        </mxCell>
        <mxCell id="OgyrcFE_uKvasq7Oo_39-75" style="edgeStyle=orthogonalEdgeStyle;rounded=0;orthogonalLoop=1;jettySize=auto;html=1;" edge="1" parent="1" target="OgyrcFE_uKvasq7Oo_39-38">
          <mxGeometry relative="1" as="geometry">
            <mxPoint x="-8885" y="-6550" as="sourcePoint" />
            <Array as="points">
              <mxPoint x="-8885" y="-6380" />
              <mxPoint x="-8625" y="-6380" />
            </Array>
          </mxGeometry>
        </mxCell>
        <mxCell id="OgyrcFE_uKvasq7Oo_39-77" style="edgeStyle=orthogonalEdgeStyle;rounded=0;orthogonalLoop=1;jettySize=auto;html=1;" edge="1" parent="1" target="OgyrcFE_uKvasq7Oo_39-39">
          <mxGeometry relative="1" as="geometry">
            <mxPoint x="-8885" y="-6550" as="sourcePoint" />
            <Array as="points">
              <mxPoint x="-8885" y="-6380" />
              <mxPoint x="-8495" y="-6380" />
            </Array>
          </mxGeometry>
        </mxCell>
        <mxCell id="OgyrcFE_uKvasq7Oo_39-78" style="edgeStyle=orthogonalEdgeStyle;rounded=0;orthogonalLoop=1;jettySize=auto;html=1;exitX=0.958;exitY=0.486;exitDx=0;exitDy=0;exitPerimeter=0;" edge="1" parent="1" source="OgyrcFE_uKvasq7Oo_39-56" target="OgyrcFE_uKvasq7Oo_39-40">
          <mxGeometry relative="1" as="geometry">
            <Array as="points">
              <mxPoint x="-8885" y="-6601" />
              <mxPoint x="-8885" y="-6380" />
              <mxPoint x="-8365" y="-6380" />
            </Array>
          </mxGeometry>
        </mxCell>
        <mxCell id="OgyrcFE_uKvasq7Oo_39-56" value="" style="html=1;whiteSpace=wrap;aspect=fixed;shape=isoRectangle;" vertex="1" parent="1">
          <mxGeometry x="-8917.5" y="-6620" width="65" height="39" as="geometry" />
        </mxCell>
        <mxCell id="OgyrcFE_uKvasq7Oo_39-83" style="edgeStyle=orthogonalEdgeStyle;rounded=0;orthogonalLoop=1;jettySize=auto;html=1;entryX=0.013;entryY=0.538;entryDx=0;entryDy=0;entryPerimeter=0;" edge="1" parent="1" source="OgyrcFE_uKvasq7Oo_39-82" target="OgyrcFE_uKvasq7Oo_39-56">
          <mxGeometry relative="1" as="geometry">
            <Array as="points">
              <mxPoint x="-9023" y="-6600" />
              <mxPoint x="-8917" y="-6600" />
            </Array>
          </mxGeometry>
        </mxCell>
        <mxCell id="OgyrcFE_uKvasq7Oo_39-85" style="edgeStyle=orthogonalEdgeStyle;rounded=0;orthogonalLoop=1;jettySize=auto;html=1;entryX=0;entryY=0.5;entryDx=0;entryDy=0;exitX=0.492;exitY=0.949;exitDx=0;exitDy=0;exitPerimeter=0;" edge="1" parent="1" source="OgyrcFE_uKvasq7Oo_39-82" target="OgyrcFE_uKvasq7Oo_39-84">
          <mxGeometry relative="1" as="geometry">
            <Array as="points">
              <mxPoint x="-9023" y="-6100" />
            </Array>
          </mxGeometry>
        </mxCell>
        <mxCell id="OgyrcFE_uKvasq7Oo_39-82" value="" style="html=1;whiteSpace=wrap;aspect=fixed;shape=isoRectangle;" vertex="1" parent="1">
          <mxGeometry x="-9055" y="-6180" width="65" height="39" as="geometry" />
        </mxCell>
        <mxCell id="OgyrcFE_uKvasq7Oo_39-89" style="edgeStyle=orthogonalEdgeStyle;rounded=0;orthogonalLoop=1;jettySize=auto;html=1;exitX=0.5;exitY=1;exitDx=0;exitDy=0;entryX=0.5;entryY=0;entryDx=0;entryDy=0;" edge="1" parent="1" source="OgyrcFE_uKvasq7Oo_39-84" target="OgyrcFE_uKvasq7Oo_39-88">
          <mxGeometry relative="1" as="geometry" />
        </mxCell>
        <mxCell id="OgyrcFE_uKvasq7Oo_39-84" value="&lt;div&gt;Формирование &lt;br&gt;&lt;/div&gt;бюджета на следующий месяц" style="html=1;align=center;verticalAlign=middle;rounded=1;absoluteArcSize=1;arcSize=10;dashed=0;whiteSpace=wrap;fontSize=9;" vertex="1" parent="1">
          <mxGeometry x="-8940" y="-6120" width="110" height="40" as="geometry" />
        </mxCell>
        <mxCell id="OgyrcFE_uKvasq7Oo_39-86" value="Да" style="text;html=1;strokeColor=none;fillColor=none;align=center;verticalAlign=middle;whiteSpace=wrap;rounded=0;fontSize=9;fontStyle=1" vertex="1" parent="1">
          <mxGeometry x="-9020" y="-6141" width="30" height="20" as="geometry" />
        </mxCell>
        <mxCell id="OgyrcFE_uKvasq7Oo_39-87" value="Нет" style="text;html=1;strokeColor=none;fillColor=none;align=center;verticalAlign=middle;whiteSpace=wrap;rounded=0;fontSize=9;fontStyle=1" vertex="1" parent="1">
          <mxGeometry x="-9020" y="-6200" width="30" height="20" as="geometry" />
        </mxCell>
        <mxCell id="OgyrcFE_uKvasq7Oo_39-88" value="" style="ellipse;html=1;shape=endState;fillColor=strokeColor;" vertex="1" parent="1">
          <mxGeometry x="-8900" y="-6060" width="30" height="30" as="geometry" />
        </mxCell>
        <mxCell id="OgyrcFE_uKvasq7Oo_39-90" value="Конец" style="text;html=1;strokeColor=none;fillColor=none;align=center;verticalAlign=middle;whiteSpace=wrap;rounded=0;fontSize=9;fontStyle=1" vertex="1" parent="1">
          <mxGeometry x="-8900" y="-6030" width="30" height="20" as="geometry" />
        </mxCell>
      </root>
    </mxGraphModel>
  </diagram>
</mxfile>
